<?xml version="1.0" encoding="UTF-8"?> <svg xmlns="http://www.w3.org/2000/svg" width="320" height="135" viewBox="0 0 320 135" fill="none"> <path d="M110.201 45.3062C109.764 45.5633 109.455 45.2804 109.275 44.4575C109.095 43.6089 109.005 42.4902 109.005 41.1016C109.005 40.1243 109.031 39.1729 109.082 38.2471C109.159 37.3213 109.236 36.7555 109.313 36.5498C110.908 28.6035 114.701 22.6759 120.693 18.7671C126.685 14.8325 133.191 12.3381 140.211 11.2837C147.258 10.2293 155.667 9.57357 165.439 9.31641C166.236 9.31641 167.355 9.29069 168.795 9.23926L179.673 8.96924C187.851 8.76351 194.267 8.54492 198.921 8.31348C203.576 8.05632 208.153 7.58057 212.654 6.88623C214.943 6.42334 217.308 5.79329 219.751 4.99609C222.22 4.19889 224.368 3.42741 226.193 2.68164C228.019 1.91016 229.151 1.3444 229.588 0.984375C229.459 0.830078 229.395 0.701497 229.395 0.598633C229.395 0.495768 229.459 0.444336 229.588 0.444336C229.691 0.444336 229.806 0.495768 229.935 0.598633C230.064 0.701497 230.128 0.830078 230.128 0.984375C230.128 1.3444 229.704 1.71729 228.855 2.10303C224.92 4.00602 221.192 5.44613 217.668 6.42334C214.171 7.37484 210.944 8.01774 207.986 8.35205C205.029 8.68636 201.313 8.96924 196.838 9.20068C196.273 9.25212 195.424 9.30355 194.292 9.35498C190.769 9.53499 185.382 9.72786 178.13 9.93359C166.12 10.2936 156.593 10.7951 149.546 11.438C142.5 12.0552 135.994 13.4181 130.028 15.5269C124.087 17.6099 119.407 20.7858 115.987 25.0547C114.83 26.3148 113.762 27.9092 112.785 29.8379C111.834 31.7666 111.075 33.7982 110.509 35.9326C109.969 38.0413 109.699 39.9958 109.699 41.7959C109.699 43.1589 109.866 44.3289 110.201 45.3062ZM90.7979 73.8125C90.7979 72.5524 91.055 71.2795 91.5693 69.9937C92.0579 68.7078 92.778 67.4735 93.7295 66.2905C95.9411 63.5132 99.2713 60.7616 103.72 58.0356C108.195 55.284 113.042 52.5838 118.263 49.9351L119.651 49.2407L120.963 48.5078L122.892 47.4663L133.229 41.873C136.058 40.2529 138.797 38.5428 141.446 36.7427C141.6 36.6141 141.857 36.4469 142.217 36.2412C142.68 35.9069 143.027 35.6369 143.259 35.4312C143.49 35.2254 143.67 34.9425 143.799 34.5825C144.467 33.2967 145.419 31.3551 146.653 28.7578C148.788 24.4118 150.421 21.2487 151.552 19.2686C152.684 17.2627 153.622 16.2598 154.368 16.2598C154.522 16.2598 154.651 16.2983 154.754 16.3755C154.908 16.4012 154.985 16.5298 154.985 16.7612C154.985 17.0441 154.882 17.327 154.677 17.6099C153.674 19.0757 152.761 20.6058 151.938 22.2002L148.968 28.1021L146.576 32.9624C146.602 32.9624 146.602 32.9753 146.576 33.001C146.576 33.0267 146.589 33.0524 146.615 33.0781C149.289 31.0465 151.398 29.3107 152.941 27.8706C154.484 26.4305 155.615 25.2347 156.335 24.2832C157.081 23.3317 157.853 22.2131 158.65 20.9272C159.55 19.3843 160.489 18.0342 161.466 16.877C161.594 16.7741 161.749 16.7227 161.929 16.7227C162.186 16.7227 162.314 16.8641 162.314 17.147C162.314 17.3013 162.237 17.4941 162.083 17.7256L155.487 28.6035C153.738 31.5609 152.028 34.6211 150.356 37.7842C148.711 40.8187 146.383 45.7819 143.375 52.6738C140.366 59.5658 137.717 66.1619 135.428 72.4624C133.139 78.7629 131.995 82.9417 131.995 84.999C131.995 85.4362 132.059 85.7576 132.188 85.9634C132.188 86.1434 132.149 86.272 132.072 86.3491C131.995 86.452 131.867 86.5677 131.687 86.6963C131.044 86.5934 130.722 85.9119 130.722 84.6519C130.722 80.1515 134.734 68.7979 142.757 50.5908L143.529 48.8164C145.509 44.3418 147.399 40.3044 149.199 36.7041C150.999 33.1038 152.889 29.7479 154.87 26.6362L148.119 32.4224C147.013 33.3481 146.332 33.9653 146.075 34.2739C145.818 34.5568 145.522 35.0454 145.188 35.7397C144.879 36.4084 144.596 36.987 144.339 37.4756C140.816 44.2389 137.601 50.0636 134.695 54.9497C131.789 59.8101 128.459 64.439 124.705 68.8364C120.95 73.2339 116.9 76.6927 112.554 79.2129C110.754 80.2158 108.902 81.0002 106.999 81.5659C105.122 82.1574 103.283 82.4531 101.483 82.4531C100.017 82.4531 98.6927 82.2731 97.5098 81.9131C95.2467 81.1673 93.5623 80.0744 92.4565 78.6343C91.3507 77.2199 90.7979 75.6126 90.7979 73.8125ZM91.6079 73.8125C91.6079 75.2526 91.9937 76.5256 92.7651 77.6313C93.5366 78.7629 94.6296 79.6372 96.0439 80.2544C97.4583 80.8973 99.0785 81.2188 100.904 81.2188C104.325 81.2188 108.066 80.0744 112.129 77.7856C116.218 75.4969 120.204 71.9738 124.087 67.2163C126.505 64.3361 128.768 61.2502 130.876 57.9585C133.011 54.6668 134.94 51.4395 136.663 48.2764L142.873 36.4727L142.757 36.3569C139.723 38.4657 136.573 40.4587 133.307 42.3359L120.654 49.2407L110.201 54.9111C107.449 56.4541 104.813 58.0871 102.293 59.8101C99.7728 61.533 97.6126 63.2817 95.8125 65.0562C94.3981 66.5991 93.3438 68.1164 92.6494 69.6079C91.9551 71.0994 91.6079 72.501 91.6079 73.8125ZM167.368 61.4302C166.236 61.4302 165.388 61.0701 164.822 60.3501C164.256 59.6558 163.973 58.6914 163.973 57.457C163.973 56.0169 164.41 54.2939 165.285 52.2881C161.144 56.557 157.956 58.6914 155.718 58.6914C153.944 58.6914 153.057 57.8171 153.057 56.0684C153.057 55.0654 153.327 53.9082 153.867 52.5967C154.407 51.2594 155.011 50.0894 155.68 49.0864C156.323 48.0578 156.683 47.6206 156.76 47.7749C156.965 47.8521 157.107 47.9163 157.184 47.9678C157.261 48.0192 157.261 48.0964 157.184 48.1992L156.567 49.3564C155.77 50.7965 155.14 52.0438 154.677 53.0981C154.188 54.1268 153.944 55.0397 153.944 55.8369C153.944 56.9427 154.522 57.547 155.68 57.6499C156.708 57.7785 158.251 57.0327 160.309 55.4126C162.392 53.7668 164.089 52.2495 165.4 50.8608C165.966 50.3465 166.545 49.6908 167.136 48.8936L169.451 45.7305C170.659 44.0332 171.585 42.7988 172.228 42.0273C172.871 41.2559 173.411 40.883 173.848 40.9087C174.002 40.9087 174.17 41.0373 174.35 41.2944C174.53 41.3716 174.632 41.5002 174.658 41.6802C174.632 42.0145 174.414 42.4388 174.002 42.9531C173.617 43.4417 173.064 44.0589 172.344 44.8047C171.701 45.4733 171.367 45.859 171.341 45.9619C170.081 47.5049 168.756 49.5107 167.368 51.9795C166.159 54.6283 165.555 56.6084 165.555 57.9199C165.555 58.6657 165.76 59.2186 166.172 59.5786C166.583 59.9386 167.123 60.1187 167.792 60.1187C168.821 60.1187 170.081 59.6815 171.572 58.8071C173.09 57.9071 174.632 56.827 176.201 55.5669C177.796 54.3068 179.801 52.6224 182.219 50.5137L185.073 48.0449C185.176 47.9421 185.253 47.9035 185.305 47.9292C185.382 47.9292 185.42 47.9678 185.42 48.0449C185.42 48.1478 185.356 48.3149 185.228 48.5464C185.099 48.7521 184.932 48.9578 184.726 49.1636C182.257 51.6838 179.866 53.8696 177.551 55.7212C175.263 57.5728 173.231 58.9871 171.457 59.9644C169.682 60.9416 168.319 61.4302 167.368 61.4302ZM187.966 59.7715C187.015 59.3857 186.333 58.7557 185.922 57.8813C185.562 57.0841 185.382 56.1841 185.382 55.1812C185.382 54.6411 185.446 54.0239 185.575 53.3296L185.652 52.8667C185.549 52.8924 185.459 52.9567 185.382 53.0596C185.33 53.1367 185.292 53.1882 185.266 53.2139L183.337 55.1426C183.055 55.4255 182.823 55.6312 182.643 55.7598C182.437 55.9398 182.206 56.0426 181.949 56.0684H181.833C181.422 56.0684 181.139 55.8883 180.984 55.5283C180.933 55.374 180.907 55.2454 180.907 55.1426C180.882 55.0654 180.869 54.9497 180.869 54.7954C180.869 54.6925 180.894 54.4868 180.946 54.1782C181.049 53.6382 181.28 53.021 181.64 52.3267C182.489 50.6037 183.479 49.0607 184.61 47.6978C185.536 46.6177 186.282 45.859 186.848 45.4219C187.311 44.9847 187.812 44.6375 188.352 44.3804C188.789 44.1232 189.291 43.9946 189.856 43.9946C190.294 43.9946 190.667 44.1618 190.975 44.4961L191.052 44.5732L191.129 44.6118C191.181 44.5861 191.219 44.5475 191.245 44.4961C191.297 44.4447 191.361 44.4061 191.438 44.3804C191.541 44.3032 191.695 44.2132 191.901 44.1104C191.952 44.0846 192.042 44.0718 192.171 44.0718C192.454 44.0718 192.672 44.2261 192.827 44.5347C192.852 44.5861 192.865 44.6632 192.865 44.7661C192.865 44.869 192.827 44.9847 192.75 45.1133L192.518 45.499L191.708 46.4248C191.502 46.6305 191.387 46.8491 191.361 47.0806C191.335 47.312 191.219 47.6335 191.014 48.0449L190.898 48.2764C190.667 48.5078 190.448 48.6107 190.242 48.585L189.779 48.5464C189.599 48.7007 189.381 48.9193 189.124 49.2021C188.866 49.485 188.648 49.7422 188.468 49.9736C187.645 51.2337 187.092 52.4038 186.809 53.4839C186.629 54.2554 186.539 54.924 186.539 55.4897C186.539 56.1584 186.668 56.7884 186.925 57.3799C187.336 58.3057 188.082 58.8714 189.162 59.0771C189.522 59.1286 189.779 59.1543 189.934 59.1543C190.319 59.1543 190.679 59.1157 191.014 59.0386C191.914 58.8843 192.917 58.5371 194.022 57.9971C195.103 57.457 196.298 56.737 197.61 55.8369C199.153 54.7311 200.567 53.5096 201.853 52.1724L205.903 48.0063L206.019 47.8906C206.096 47.8135 206.199 47.7749 206.328 47.7749C206.456 47.7749 206.559 47.8392 206.636 47.9678C206.662 47.9935 206.675 48.0578 206.675 48.1606C206.675 48.2892 206.611 48.4435 206.482 48.6235L205.903 49.2793L203.126 52.3652C201.197 54.3968 199.037 56.1712 196.646 57.6885C195.205 58.5371 193.932 59.1543 192.827 59.54C191.669 59.9001 190.667 60.0801 189.818 60.0801C189.098 60.0801 188.481 59.9772 187.966 59.7715ZM182.759 53.9468L183.299 53.4839L186.771 50.0122L187.079 49.6265C187.722 48.495 188.545 47.3634 189.548 46.2319C189.651 46.1291 189.715 46.0391 189.741 45.9619C189.844 45.8076 189.818 45.679 189.664 45.5762C189.509 45.5762 189.342 45.6405 189.162 45.769C188.931 45.8719 188.635 46.0648 188.275 46.3477C187.503 46.9391 186.629 47.8135 185.652 48.9707C184.623 50.2822 183.71 51.7609 182.913 53.4067L182.72 53.9082L182.759 53.9468ZM213.618 59.7329C212.512 59.7329 211.664 59.3857 211.072 58.6914C210.507 57.9714 210.224 56.9684 210.224 55.6826C210.224 54.5254 210.455 53.1753 210.918 51.6323C209.555 52.4552 208.411 52.8667 207.485 52.8667C206.533 52.8667 205.736 52.4681 205.093 51.6709L203.666 53.8311C202.663 55.374 201.853 56.557 201.236 57.3799C200.927 57.4827 200.683 57.5342 200.503 57.5342C200.271 57.5085 200.156 57.3542 200.156 57.0713C200.181 56.7884 200.31 56.4284 200.542 55.9912C200.773 55.554 200.992 55.1812 201.197 54.8726L202.316 53.0981L207.331 45.1519C208.436 43.4803 209.298 42.3231 209.915 41.6802C210.172 41.5516 210.378 41.4873 210.532 41.4873C210.867 41.513 211.034 41.7573 211.034 42.2202C210.982 42.5288 210.879 42.7988 210.725 43.0303C210.494 43.3903 209.889 44.2775 208.912 45.6919C208.192 46.6948 207.601 47.5435 207.138 48.2378C206.701 48.9064 206.315 49.6136 205.98 50.3594C206.315 51.0537 206.881 51.4009 207.678 51.4009C208.372 51.4009 209.105 51.1694 209.876 50.7065C210.674 50.2437 211.342 49.755 211.882 49.2407C212.139 48.9321 212.577 48.2764 213.194 47.2734C214.042 45.8848 214.788 44.779 215.431 43.9561C216.1 43.1331 216.704 42.7217 217.244 42.7217C217.321 42.7217 217.437 42.7474 217.591 42.7988C217.874 43.0046 218.016 43.2874 218.016 43.6475C217.99 44.1361 217.784 44.6375 217.398 45.1519C217.038 45.6405 216.486 46.2705 215.74 47.042C215.148 47.6592 214.673 48.1864 214.312 48.6235C213.952 49.035 213.631 49.485 213.348 49.9736C212.68 51.1309 212.191 52.2238 211.882 53.2524C211.574 54.2811 211.419 55.194 211.419 55.9912C211.419 56.8398 211.574 57.5085 211.882 57.9971C212.217 58.4857 212.692 58.7428 213.31 58.7686C216.344 59 220.78 55.9269 226.618 49.5493C226.721 49.4207 226.978 49.1121 227.389 48.6235C227.826 48.1349 228.122 47.8906 228.276 47.8906C228.354 47.8906 228.405 47.9421 228.431 48.0449C228.456 48.1221 228.469 48.1864 228.469 48.2378C227.441 49.575 226.09 51.118 224.419 52.8667C222.747 54.6154 220.922 56.1969 218.941 57.6113C216.961 59.0257 215.187 59.7329 213.618 59.7329ZM49.2148 117.163C47.4404 117.163 46.0132 116.636 44.9331 115.582C43.853 114.553 43.313 113.049 43.313 111.068C43.313 110.323 43.4159 109.435 43.6216 108.407C43.3901 108.561 43.0687 108.792 42.6572 109.101C41.7057 109.847 40.9985 110.297 40.5356 110.451C40.2271 110.554 39.9442 110.605 39.687 110.605C39.2241 110.605 38.877 110.451 38.6455 110.143C38.4141 109.808 38.2983 109.371 38.2983 108.831C38.2983 108.265 38.4526 107.61 38.7612 106.864C36.6782 109.127 34.7495 110.837 32.9751 111.994C31.2007 113.151 29.7091 113.73 28.5005 113.73C27.729 113.73 27.1375 113.499 26.7261 113.036C26.3146 112.573 26.1089 111.917 26.1089 111.068C26.1089 109.32 26.9318 107.057 28.5776 104.279C28.8605 103.791 29.1305 103.418 29.3877 103.161C29.6191 102.878 29.7606 102.762 29.812 102.813C30.0949 102.891 30.2363 102.993 30.2363 103.122C30.2363 103.225 30.1206 103.456 29.8892 103.816C29.6834 104.176 29.5034 104.511 29.3491 104.819C27.8062 107.417 27.0347 109.448 27.0347 110.914C27.0347 112.097 27.549 112.688 28.5776 112.688C29.3748 112.688 30.4163 112.316 31.7021 111.57C33.0137 110.798 34.4795 109.654 36.0996 108.137L36.7168 107.558C37.8997 106.452 38.8384 105.514 39.5327 104.742C39.7127 104.614 40.0085 104.241 40.4199 103.624C40.8571 102.981 41.14 102.556 41.2686 102.351C42.4772 100.499 43.5444 98.9818 44.4702 97.7988C45.4217 96.6159 46.2061 96.0244 46.8232 96.0244C47.0547 96.0244 47.2476 96.1273 47.4019 96.333C47.4533 96.3844 47.479 96.4873 47.479 96.6416C47.479 97.0788 47.1704 97.7088 46.5532 98.5317C45.9618 99.3289 45.1774 100.28 44.2002 101.386C43.2487 102.543 42.7087 103.225 42.5801 103.431C41.7572 104.639 41.1271 105.642 40.6899 106.439C40.2785 107.237 40.0213 108.085 39.9185 108.985C40.3042 108.96 40.8571 108.69 41.5771 108.175C42.3229 107.661 43.2744 106.915 44.4316 105.938C44.7145 105.501 44.9845 105.012 45.2417 104.472C45.3188 104.318 45.4474 104.074 45.6274 103.739C45.8332 103.379 46.026 103.083 46.2061 102.852C46.9261 101.849 47.5176 101.09 47.9805 100.576C48.4434 100.036 49.0091 99.599 49.6777 99.2646C49.9092 99.1875 50.1149 99.1489 50.2949 99.1489C50.5264 99.1489 50.7064 99.2261 50.835 99.3804C50.9893 99.5347 51.0664 99.7275 51.0664 99.959C51.0664 100.345 50.9121 100.73 50.6035 101.116C49.9606 102.093 49.292 102.955 48.5977 103.701C47.929 104.421 46.9775 105.372 45.7432 106.555C45.486 106.967 45.2931 107.404 45.1646 107.867C45.036 108.304 44.8945 108.921 44.7402 109.718C44.6631 110.207 44.6245 110.695 44.6245 111.184C44.6245 112.753 45.0488 113.936 45.8975 114.733C46.7718 115.556 47.9162 115.967 49.3306 115.967C50.6935 115.967 52.1979 115.594 53.8438 114.849C55.6953 114.026 57.3926 112.997 58.9355 111.763C60.4785 110.503 62.4072 108.78 64.7217 106.594C65.0046 106.285 65.3774 105.925 65.8403 105.514C66.3289 105.102 66.7147 104.742 66.9976 104.434C67.2804 104.099 67.5376 103.675 67.769 103.161C67.8462 103.058 67.9362 102.981 68.0391 102.929C68.1676 102.852 68.2834 102.826 68.3862 102.852C68.8234 102.929 69.042 103.122 69.042 103.431C69.042 103.662 68.9263 103.932 68.6948 104.241C68.4634 104.524 68.1419 104.884 67.7305 105.321C67.4476 105.604 67.2676 105.797 67.1904 105.899C65.056 108.111 62.973 110.053 60.9414 111.724C58.9098 113.396 56.7625 114.759 54.4995 115.813C52.6222 116.713 50.8607 117.163 49.2148 117.163ZM68.7334 111.223C67.5247 110.785 66.7918 109.975 66.5347 108.792L66.4189 107.944C66.3932 107.147 66.4961 106.337 66.7275 105.514C67.3962 103.148 68.7848 101.193 70.8936 99.6504C71.3822 99.3418 71.8193 99.1232 72.2051 98.9946C72.5137 98.8918 72.8351 98.8532 73.1694 98.8789C73.4266 98.9046 73.658 99.0203 73.8638 99.2261C74.0695 99.4318 74.1852 99.6632 74.2109 99.9204V100.19C74.2109 100.602 74.1209 100.91 73.9409 101.116C73.7609 101.425 73.568 101.682 73.3623 101.888C72.3594 102.891 71.1893 103.624 69.8521 104.086C69.8263 104.086 69.6849 104.125 69.4277 104.202L68.9648 104.279L68.4634 105.282C68.1805 105.848 67.9876 106.465 67.8848 107.134C67.8333 107.494 67.8076 107.764 67.8076 107.944C67.8076 108.87 68.1805 109.525 68.9263 109.911C69.4149 110.168 70.0964 110.297 70.9707 110.297C71.6136 110.297 72.5008 110.143 73.6323 109.834C75.2524 109.371 76.7568 108.677 78.1455 107.751C80.1257 106.439 81.9644 105.051 83.6616 103.585C83.8416 103.405 83.9445 103.238 83.9702 103.083C83.9959 102.929 84.0988 102.813 84.2788 102.736C84.3045 102.736 84.356 102.723 84.4331 102.698C84.5103 102.646 84.5874 102.621 84.6646 102.621H84.7803C84.9089 102.621 85.0246 102.672 85.1274 102.775C85.2303 102.852 85.2817 102.968 85.2817 103.122C85.2817 103.354 85.2303 103.521 85.1274 103.624C84.8703 103.932 84.6646 104.151 84.5103 104.279C83.8931 104.896 82.9416 105.719 81.6558 106.748C80.4985 107.7 79.3413 108.484 78.1841 109.101C76.5382 110.027 74.9824 110.695 73.5166 111.107C72.5394 111.39 71.6007 111.531 70.7007 111.531C69.9806 111.531 69.3249 111.428 68.7334 111.223ZM70.3535 102.428C70.6364 102.273 70.945 102.042 71.2793 101.733C71.6393 101.399 71.8836 101.116 72.0122 100.885C71.6779 101.065 71.1507 101.515 70.4307 102.235C70.3535 102.312 70.3278 102.376 70.3535 102.428ZM65.5317 134.02C65.4289 134.02 65.3389 134.007 65.2617 133.981C65.1846 133.956 65.1203 133.93 65.0688 133.904C64.7603 133.75 64.606 133.493 64.606 133.133C64.606 132.336 65.3517 130.921 66.8433 128.89L67.4604 127.964L70.7007 123.374L74.2495 118.59L75.3682 117.125L77.5669 113.344L84.8574 100.846C86.9147 97.4002 88.4191 95.0086 89.3706 93.6714C90.1421 92.5142 90.8364 91.9355 91.4536 91.9355C91.6851 91.9355 91.8651 92.0256 91.9937 92.2056C92.1222 92.3599 92.1865 92.5527 92.1865 92.7842C92.0579 93.2985 91.8265 93.8385 91.4922 94.4043L90.875 95.4844L86.439 101.425L83.5073 106.401L81.4243 109.911L88.4062 102.775C90.0007 101.181 91.1965 100.062 91.9937 99.4189C92.7909 98.776 93.3823 98.4546 93.7681 98.4546C93.9224 98.4546 94.0638 98.506 94.1924 98.6089C94.321 98.7118 94.4624 98.866 94.6167 99.0718C94.6424 99.1232 94.6553 99.2261 94.6553 99.3804C94.6553 99.7918 94.5138 100.28 94.231 100.846C93.9481 101.386 93.6523 101.901 93.3438 102.389C93.0609 102.852 92.8809 103.161 92.8037 103.315C89.6921 108.021 88.1362 111.3 88.1362 113.151C88.1362 114.206 88.6763 114.733 89.7563 114.733C90.425 114.733 91.2479 114.553 92.2251 114.193C96.0054 112.29 99.7471 109.281 103.45 105.167C103.553 105.064 103.733 104.871 103.99 104.588C104.247 104.305 104.44 104.048 104.569 103.816C104.723 103.559 104.813 103.315 104.839 103.083C104.942 102.981 105.006 102.929 105.032 102.929C105.135 102.929 105.225 102.993 105.302 103.122C105.379 103.251 105.405 103.379 105.379 103.508C104.582 104.974 103.219 106.684 101.29 108.638C99.3613 110.567 97.3426 112.238 95.2339 113.653C93.1509 115.067 91.4536 115.826 90.1421 115.929L89.6406 115.967C88.6634 115.967 87.9176 115.684 87.4033 115.119C86.889 114.553 86.6318 113.82 86.6318 112.92C86.6318 112.766 86.6576 112.483 86.709 112.071C86.9919 110.811 87.4162 109.628 87.9819 108.522C88.5477 107.391 89.3192 106.067 90.2964 104.549L91.145 103.161C91.6079 102.441 92.0065 101.759 92.3408 101.116L92.2637 101.078C90.3864 102.595 88.4062 104.408 86.3232 106.517C84.2402 108.6 82.3887 110.58 80.7686 112.457C79.1484 114.309 78.1069 115.569 77.644 116.237L70.5078 127.771C68.862 130.343 67.7048 132.027 67.0361 132.824C66.3675 133.621 65.866 134.02 65.5317 134.02ZM101.984 112.65C101.701 112.65 101.457 112.573 101.251 112.418C101.046 112.238 100.904 111.994 100.827 111.686C100.776 111.377 100.75 111.158 100.75 111.03C100.75 110.85 100.763 110.721 100.789 110.644C100.789 110.438 100.801 110.271 100.827 110.143C100.853 110.04 100.866 109.86 100.866 109.603C100.814 109.243 100.789 108.985 100.789 108.831C100.789 107.802 101.084 106.632 101.676 105.321C102.782 102.903 104.312 100.872 106.266 99.2261C106.703 98.8403 107.153 98.5189 107.616 98.2617C108.156 97.9274 108.696 97.7603 109.236 97.7603C109.519 97.7603 109.738 97.786 109.892 97.8374C110.252 97.9403 110.535 98.1846 110.741 98.5703C110.946 98.9046 111.049 99.3289 111.049 99.8433C111.049 100.64 110.844 101.592 110.432 102.698C109.918 104.112 109.133 105.578 108.079 107.095C107.179 108.407 106.125 109.667 104.916 110.875L104.299 111.416L104.106 111.647C104.543 111.673 105.122 111.608 105.842 111.454C106.665 111.248 107.681 110.863 108.889 110.297C110.149 109.68 111.641 108.767 113.364 107.558L117.954 104.086C118.186 103.932 118.404 103.752 118.61 103.546C118.893 103.315 119.06 103.148 119.111 103.045C119.188 102.968 119.253 102.929 119.304 102.929C119.51 102.929 119.626 103.019 119.651 103.199C119.703 103.328 119.677 103.456 119.574 103.585L119.266 103.932C118.597 104.549 118.083 104.999 117.723 105.282C115.974 106.671 114.65 107.687 113.75 108.33C112.232 109.41 110.818 110.271 109.506 110.914C108.041 111.608 106.768 112.058 105.688 112.264C105.276 112.367 104.8 112.418 104.26 112.418C103.797 112.418 103.45 112.393 103.219 112.341C103.116 112.341 103.013 112.367 102.91 112.418C102.679 112.521 102.473 112.586 102.293 112.611C102.216 112.637 102.113 112.65 101.984 112.65ZM102.177 110.258C102.177 110.284 102.177 110.348 102.177 110.451C102.152 110.528 102.164 110.593 102.216 110.644C102.319 110.875 102.447 111.017 102.602 111.068C102.936 110.863 103.296 110.593 103.682 110.258C104.762 109.333 105.88 108.098 107.038 106.555C107.912 105.398 108.696 104.061 109.391 102.543C109.725 101.772 109.944 101 110.046 100.229L110.085 99.689C110.085 99.5861 110.059 99.4061 110.008 99.1489C109.956 98.9432 109.866 98.8018 109.738 98.7246C109.635 98.6475 109.481 98.6089 109.275 98.6089C108.992 98.6089 108.722 98.6732 108.465 98.8018C108.002 99.0332 107.655 99.2518 107.423 99.4575C105.958 100.538 104.646 102.016 103.489 103.894C103.309 104.202 103.064 104.665 102.756 105.282C102.679 105.437 102.653 105.552 102.679 105.629C103.656 103.881 104.839 102.261 106.228 100.769L106.922 100.152C107.102 99.9718 107.282 99.869 107.462 99.8433C107.565 99.7918 107.655 99.7918 107.732 99.8433C108.092 99.9204 108.272 100.113 108.272 100.422L108.195 100.73C108.195 100.756 108.092 100.898 107.886 101.155L106.305 103.276C106.279 103.354 106.228 103.405 106.15 103.431C106.099 103.431 106.035 103.418 105.958 103.392L105.842 103.315L105.649 103.546L104.453 105.359C103.656 106.697 103.013 107.982 102.524 109.217L102.177 110.258ZM122.274 111.956C122.274 110.85 122.519 109.577 123.007 108.137C123.522 106.671 124.216 104.948 125.09 102.968C125.579 101.836 125.888 101.09 126.016 100.73C122.416 103.019 119.767 105.051 118.07 106.825C116.347 108.574 114.945 110.284 113.865 111.956C113.454 112.598 113.132 113.036 112.901 113.267C112.644 113.473 112.348 113.563 112.014 113.537C111.834 113.357 111.744 113.139 111.744 112.881C111.744 112.238 112.361 111.248 113.595 109.911C114.135 109.294 114.457 108.857 114.56 108.6L115.833 106.709L121.04 98.7632C121.194 98.3517 121.503 97.8888 121.966 97.3745C122.429 96.8345 122.827 96.5645 123.162 96.5645C123.444 96.5645 123.637 96.8088 123.74 97.2974C123.38 98.1203 122.712 99.2775 121.734 100.769L120.461 102.813C120.719 102.659 121.207 102.261 121.927 101.618C123.239 100.512 124.332 99.6504 125.206 99.0332C126.08 98.416 126.8 98.1074 127.366 98.1074C128.009 98.1074 128.318 98.6346 128.292 99.689C127.855 100.82 127.225 102.171 126.402 103.739C125.502 105.514 124.82 107.005 124.357 108.214C123.895 109.397 123.663 110.528 123.663 111.608C123.663 111.788 123.689 112.084 123.74 112.496C123.766 113.036 124.036 113.306 124.55 113.306C125.502 113.306 127.045 112.547 129.179 111.03C131.314 109.487 133.795 107.571 136.624 105.282C138.424 103.842 139.427 103.083 139.633 103.006C139.71 102.929 139.8 102.891 139.903 102.891C140.057 102.891 140.186 102.955 140.289 103.083C140.417 103.212 140.469 103.366 140.443 103.546C140.366 103.804 140.173 104.048 139.864 104.279C139.556 104.511 139.35 104.678 139.247 104.781C136.393 107.224 133.705 109.345 131.185 111.146C128.665 112.92 126.723 114.013 125.36 114.424C125 114.476 124.73 114.501 124.55 114.501C123.033 114.501 122.274 113.653 122.274 111.956ZM120.924 134.02C120.821 134.02 120.731 134.007 120.654 133.981C120.577 133.956 120.513 133.93 120.461 133.904C120.153 133.75 119.999 133.493 119.999 133.133C119.999 132.336 120.744 130.921 122.236 128.89L122.853 127.964L126.093 123.374L129.642 118.59L130.761 117.125L132.959 113.344L140.25 100.846C142.307 97.4002 143.812 95.0086 144.763 93.6714C145.535 92.5142 146.229 91.9355 146.846 91.9355C147.078 91.9355 147.258 92.0256 147.386 92.2056C147.515 92.3599 147.579 92.5527 147.579 92.7842C147.451 93.2985 147.219 93.8385 146.885 94.4043L146.268 95.4844L141.832 101.425L138.9 106.401L136.817 109.911L143.799 102.775C145.393 101.181 146.589 100.062 147.386 99.4189C148.183 98.776 148.775 98.4546 149.161 98.4546C149.315 98.4546 149.456 98.506 149.585 98.6089C149.714 98.7118 149.855 98.866 150.009 99.0718C150.035 99.1232 150.048 99.2261 150.048 99.3804C150.048 99.7918 149.906 100.28 149.624 100.846C149.341 101.386 149.045 101.901 148.736 102.389C148.453 102.852 148.273 103.161 148.196 103.315C145.085 108.021 143.529 111.3 143.529 113.151C143.529 114.206 144.069 114.733 145.149 114.733C145.818 114.733 146.64 114.553 147.618 114.193C151.398 112.29 155.14 109.281 158.843 105.167C158.946 105.064 159.126 104.871 159.383 104.588C159.64 104.305 159.833 104.048 159.961 103.816C160.116 103.559 160.206 103.315 160.231 103.083C160.334 102.981 160.399 102.929 160.424 102.929C160.527 102.929 160.617 102.993 160.694 103.122C160.771 103.251 160.797 103.379 160.771 103.508C159.974 104.974 158.611 106.684 156.683 108.638C154.754 110.567 152.735 112.238 150.626 113.653C148.543 115.067 146.846 115.826 145.535 115.929L145.033 115.967C144.056 115.967 143.31 115.684 142.796 115.119C142.282 114.553 142.024 113.82 142.024 112.92C142.024 112.766 142.05 112.483 142.102 112.071C142.384 110.811 142.809 109.628 143.375 108.522C143.94 107.391 144.712 106.067 145.689 104.549L146.538 103.161C147 102.441 147.399 101.759 147.733 101.116L147.656 101.078C145.779 102.595 143.799 104.408 141.716 106.517C139.633 108.6 137.781 110.58 136.161 112.457C134.541 114.309 133.5 115.569 133.037 116.237L125.9 127.771C124.255 130.343 123.097 132.027 122.429 132.824C121.76 133.621 121.259 134.02 120.924 134.02ZM164.822 117.433C163.845 117.433 163.112 117.086 162.623 116.392C162.16 115.697 161.929 114.81 161.929 113.73C161.929 112.907 162.07 112.046 162.353 111.146C160.296 113.126 158.74 114.116 157.686 114.116C157.171 114.116 156.798 113.923 156.567 113.537C156.335 113.126 156.22 112.624 156.22 112.033C156.22 111.673 156.258 111.338 156.335 111.03C156.824 109.075 157.57 107.198 158.573 105.398C159.576 103.598 160.9 101.502 162.546 99.1104L162.893 98.9946C163.485 99.1746 163.78 99.4447 163.78 99.8047C163.78 100.01 163.703 100.229 163.549 100.46C163.42 100.666 163.202 100.949 162.893 101.309C162.507 101.746 162.263 102.093 162.16 102.351C161.26 103.688 160.309 105.372 159.306 107.404C158.303 109.435 157.801 110.94 157.801 111.917C157.801 112.174 157.84 112.38 157.917 112.534C158.457 112.508 159.164 112.148 160.039 111.454C160.887 110.76 161.684 110.014 162.43 109.217C163.202 108.394 163.626 107.867 163.703 107.635C164.037 106.864 164.577 105.835 165.323 104.549C166.095 103.264 166.879 102.119 167.676 101.116C168.499 100.113 169.168 99.6118 169.682 99.6118C169.836 99.6118 169.991 99.689 170.145 99.8433C170.325 99.9461 170.415 100.139 170.415 100.422C170.415 100.936 170.094 101.643 169.451 102.543C168.833 103.418 167.972 104.524 166.866 105.861C165.786 107.172 165.208 107.944 165.13 108.175C164.667 109.153 164.269 110.181 163.935 111.261C163.6 112.316 163.433 113.254 163.433 114.077C163.433 115.492 163.999 116.199 165.13 116.199C165.748 116.199 166.583 115.954 167.638 115.466C169.875 114.386 171.894 112.933 173.694 111.107C175.494 109.281 177.32 107.198 179.171 104.858C179.994 103.829 180.547 103.174 180.83 102.891C181.113 102.608 181.28 102.582 181.332 102.813C181.537 103.019 181.152 103.778 180.174 105.089C179.197 106.401 178.066 107.777 176.78 109.217C175.494 110.657 174.851 111.338 174.851 111.261C170.531 115.376 167.188 117.433 164.822 117.433ZM191.631 116.43C190.499 116.43 189.651 116.07 189.085 115.35C188.519 114.656 188.236 113.691 188.236 112.457C188.236 111.017 188.674 109.294 189.548 107.288C185.408 111.557 182.219 113.691 179.981 113.691C178.207 113.691 177.32 112.817 177.32 111.068C177.32 110.065 177.59 108.908 178.13 107.597C178.67 106.259 179.274 105.089 179.943 104.086C180.586 103.058 180.946 102.621 181.023 102.775C181.229 102.852 181.37 102.916 181.447 102.968C181.524 103.019 181.524 103.096 181.447 103.199L180.83 104.356C180.033 105.797 179.403 107.044 178.94 108.098C178.451 109.127 178.207 110.04 178.207 110.837C178.207 111.943 178.786 112.547 179.943 112.65C180.972 112.778 182.514 112.033 184.572 110.413C186.655 108.767 188.352 107.25 189.664 105.861C190.486 105.115 191.489 103.894 192.672 102.196C192.158 102.299 191.811 102.351 191.631 102.351C191.194 102.351 190.872 102.261 190.667 102.081C190.461 101.875 190.358 101.605 190.358 101.271C190.358 100.653 190.628 99.9204 191.168 99.0718C191.708 98.1974 192.351 97.4517 193.097 96.8345C193.868 96.1916 194.562 95.8701 195.18 95.8701C195.823 95.8701 196.285 96.2301 196.568 96.9502C197.186 96.2559 197.7 95.9087 198.111 95.9087C198.266 95.9087 198.433 96.0373 198.613 96.2944C198.793 96.3716 198.896 96.5002 198.921 96.6802C198.896 97.0145 198.677 97.4388 198.266 97.9531C197.88 98.4417 197.327 99.0589 196.607 99.8047C195.964 100.473 195.63 100.859 195.604 100.962C194.344 102.505 193.02 104.511 191.631 106.979C190.422 109.628 189.818 111.608 189.818 112.92C189.818 113.666 190.024 114.219 190.435 114.579C190.847 114.939 191.387 115.119 192.055 115.119C193.084 115.119 194.344 114.681 195.835 113.807C197.353 112.907 198.896 111.827 200.464 110.567C202.059 109.307 204.065 107.622 206.482 105.514L209.336 103.045C209.439 102.942 209.516 102.903 209.568 102.929C209.645 102.929 209.684 102.968 209.684 103.045C209.684 103.148 209.619 103.315 209.491 103.546C209.362 103.752 209.195 103.958 208.989 104.164C206.521 106.684 204.129 108.87 201.814 110.721C199.526 112.573 197.494 113.987 195.72 114.964C193.945 115.942 192.582 116.43 191.631 116.43ZM194.485 99.6118L195.411 98.3389C195.591 97.9788 195.681 97.5288 195.681 96.9888C195.218 96.9631 194.678 97.2202 194.061 97.7603C193.444 98.2746 192.904 98.8789 192.441 99.5732C192.004 100.268 191.811 100.769 191.862 101.078C192.891 100.769 193.765 100.28 194.485 99.6118ZM227.852 111.223C226.721 110.785 225.872 110.065 225.306 109.062C224.869 108.342 224.612 107.507 224.535 106.555C224.509 106.349 224.496 106.054 224.496 105.668C224.496 104.999 224.548 104.408 224.65 103.894L224.882 102.621C224.985 102.132 225.049 101.721 225.075 101.386C225.126 101.232 225.139 101.09 225.113 100.962C224.985 101.013 224.818 101.116 224.612 101.271C224.175 101.553 223.545 102.003 222.722 102.621C221.05 103.958 219.25 105.565 217.321 107.442C216.91 107.854 216.344 108.471 215.624 109.294C215.393 109.525 215.161 109.693 214.93 109.795C214.775 109.847 214.647 109.873 214.544 109.873C214.21 109.873 213.965 109.731 213.811 109.448C213.708 109.243 213.682 109.024 213.734 108.792C213.785 108.484 213.837 108.265 213.888 108.137L214.544 106.671L216.858 101.463C217.218 100.563 217.437 99.9461 217.514 99.6118L217.553 99.2646C217.347 99.3161 217.231 99.3547 217.206 99.3804C216.743 99.6375 216.408 99.8433 216.203 99.9976C215.123 100.718 213.914 101.656 212.577 102.813C211.342 103.842 209.979 105.128 208.488 106.671C207.356 107.905 206.418 108.985 205.672 109.911C205.646 109.963 205.312 110.374 204.669 111.146C204.515 111.377 204.245 111.493 203.859 111.493H203.743C203.46 111.441 203.293 111.39 203.242 111.338C203.19 111.287 203.113 111.12 203.01 110.837V110.721C203.01 110.541 203.062 110.374 203.165 110.22L203.743 109.371L204.708 108.252C205.428 107.455 206.186 106.517 206.983 105.437C208.192 103.791 209.169 102.312 209.915 101C210.224 100.435 210.404 100.1 210.455 99.9976C210.532 99.869 210.609 99.7147 210.687 99.5347C210.789 99.3547 210.892 99.1746 210.995 98.9946C211.021 98.866 211.098 98.7375 211.227 98.6089C211.329 98.4546 211.484 98.4032 211.689 98.4546C211.869 98.5317 211.959 98.6603 211.959 98.8403C211.985 98.866 211.985 98.9175 211.959 98.9946C211.959 99.0461 211.959 99.0846 211.959 99.1104L211.728 99.8433L210.841 101.849C210.789 101.901 210.738 102.003 210.687 102.158L210.764 102.196L211.072 101.926C212.384 100.795 213.695 99.7661 215.007 98.8403C215.727 98.326 216.293 97.9788 216.704 97.7988C217.09 97.6188 217.437 97.516 217.746 97.4902C218.08 97.4902 218.389 97.5931 218.671 97.7988C218.954 98.0046 219.121 98.2874 219.173 98.6475V99.0718C219.173 99.7404 219.006 100.473 218.671 101.271C218.208 102.402 217.848 103.251 217.591 103.816L216.858 105.514L216.704 105.899C216.781 105.874 216.833 105.848 216.858 105.822C216.91 105.797 216.948 105.771 216.974 105.745C217.283 105.437 217.771 104.999 218.44 104.434L219.096 103.855C220.69 102.466 222.182 101.271 223.57 100.268C224.059 99.9076 224.509 99.6504 224.92 99.4961C224.972 99.4704 225.023 99.4447 225.075 99.4189C225.152 99.3932 225.242 99.3804 225.345 99.3804C225.679 99.3289 225.962 99.4061 226.193 99.6118C226.425 99.7918 226.553 100.049 226.579 100.383C226.579 100.563 226.553 100.833 226.502 101.193C226.296 102.273 226.155 103.083 226.078 103.624C225.949 104.344 225.885 105.025 225.885 105.668C225.885 106.954 226.193 108.008 226.811 108.831C227.633 109.911 228.765 110.451 230.205 110.451C230.797 110.451 231.504 110.335 232.327 110.104C233.047 109.873 233.921 109.448 234.95 108.831C236.21 108.06 237.47 107.095 238.73 105.938C239.244 105.475 239.823 104.884 240.466 104.164L240.89 103.585L240.852 103.469C240.749 103.444 240.697 103.379 240.697 103.276C240.697 103.174 240.723 103.083 240.774 103.006C240.826 102.929 240.903 102.878 241.006 102.852L241.199 102.813C241.379 102.813 241.52 102.878 241.623 103.006C241.752 103.135 241.816 103.289 241.816 103.469C241.816 103.726 241.764 103.945 241.662 104.125C241.302 104.639 241.096 104.922 241.044 104.974C240.659 105.488 240.003 106.208 239.077 107.134C237.663 108.522 235.978 109.68 234.024 110.605C232.61 111.248 231.247 111.57 229.935 111.57C229.241 111.57 228.546 111.454 227.852 111.223ZM245.982 117.433C245.005 117.433 244.272 117.086 243.783 116.392C243.32 115.697 243.089 114.81 243.089 113.73C243.089 112.907 243.23 112.046 243.513 111.146C241.456 113.126 239.9 114.116 238.846 114.116C238.331 114.116 237.958 113.923 237.727 113.537C237.496 113.126 237.38 112.624 237.38 112.033C237.38 111.673 237.418 111.338 237.496 111.03C237.984 109.075 238.73 107.198 239.733 105.398C240.736 103.598 242.06 101.502 243.706 99.1104L244.053 98.9946C244.645 99.1746 244.94 99.4447 244.94 99.8047C244.94 100.01 244.863 100.229 244.709 100.46C244.58 100.666 244.362 100.949 244.053 101.309C243.667 101.746 243.423 102.093 243.32 102.351C242.42 103.688 241.469 105.372 240.466 107.404C239.463 109.435 238.961 110.94 238.961 111.917C238.961 112.174 239 112.38 239.077 112.534C239.617 112.508 240.324 112.148 241.199 111.454C242.047 110.76 242.845 110.014 243.59 109.217C244.362 108.394 244.786 107.867 244.863 107.635C245.198 106.864 245.738 105.835 246.483 104.549C247.255 103.264 248.039 102.119 248.836 101.116C249.659 100.113 250.328 99.6118 250.842 99.6118C250.997 99.6118 251.151 99.689 251.305 99.8433C251.485 99.9461 251.575 100.139 251.575 100.422C251.575 100.936 251.254 101.643 250.611 102.543C249.994 103.418 249.132 104.524 248.026 105.861C246.946 107.172 246.368 107.944 246.291 108.175C245.828 109.153 245.429 110.181 245.095 111.261C244.76 112.316 244.593 113.254 244.593 114.077C244.593 115.492 245.159 116.199 246.291 116.199C246.908 116.199 247.743 115.954 248.798 115.466C251.035 114.386 253.054 112.933 254.854 111.107C256.654 109.281 258.48 107.198 260.332 104.858C261.154 103.829 261.707 103.174 261.99 102.891C262.273 102.608 262.44 102.582 262.492 102.813C262.697 103.019 262.312 103.778 261.334 105.089C260.357 106.401 259.226 107.777 257.94 109.217C256.654 110.657 256.011 111.338 256.011 111.261C251.691 115.376 248.348 117.433 245.982 117.433ZM272.791 116.43C271.66 116.43 270.811 116.07 270.245 115.35C269.679 114.656 269.396 113.691 269.396 112.457C269.396 111.017 269.834 109.294 270.708 107.288C266.568 111.557 263.379 113.691 261.142 113.691C259.367 113.691 258.48 112.817 258.48 111.068C258.48 110.065 258.75 108.908 259.29 107.597C259.83 106.259 260.434 105.089 261.103 104.086C261.746 103.058 262.106 102.621 262.183 102.775C262.389 102.852 262.53 102.916 262.607 102.968C262.685 103.019 262.685 103.096 262.607 103.199L261.99 104.356C261.193 105.797 260.563 107.044 260.1 108.098C259.611 109.127 259.367 110.04 259.367 110.837C259.367 111.943 259.946 112.547 261.103 112.65C262.132 112.778 263.675 112.033 265.732 110.413C267.815 108.767 269.512 107.25 270.824 105.861C271.647 105.115 272.65 103.894 273.833 102.196C273.318 102.299 272.971 102.351 272.791 102.351C272.354 102.351 272.032 102.261 271.827 102.081C271.621 101.875 271.518 101.605 271.518 101.271C271.518 100.653 271.788 99.9204 272.328 99.0718C272.868 98.1974 273.511 97.4517 274.257 96.8345C275.028 96.1916 275.723 95.8701 276.34 95.8701C276.983 95.8701 277.446 96.2301 277.729 96.9502C278.346 96.2559 278.86 95.9087 279.271 95.9087C279.426 95.9087 279.593 96.0373 279.773 96.2944C279.953 96.3716 280.056 96.5002 280.082 96.6802C280.056 97.0145 279.837 97.4388 279.426 97.9531C279.04 98.4417 278.487 99.0589 277.767 99.8047C277.124 100.473 276.79 100.859 276.764 100.962C275.504 102.505 274.18 104.511 272.791 106.979C271.582 109.628 270.978 111.608 270.978 112.92C270.978 113.666 271.184 114.219 271.595 114.579C272.007 114.939 272.547 115.119 273.215 115.119C274.244 115.119 275.504 114.681 276.996 113.807C278.513 112.907 280.056 111.827 281.625 110.567C283.219 109.307 285.225 107.622 287.642 105.514L290.497 103.045C290.599 102.942 290.677 102.903 290.728 102.929C290.805 102.929 290.844 102.968 290.844 103.045C290.844 103.148 290.779 103.315 290.651 103.546C290.522 103.752 290.355 103.958 290.149 104.164C287.681 106.684 285.289 108.87 282.975 110.721C280.686 112.573 278.654 113.987 276.88 114.964C275.105 115.942 273.743 116.43 272.791 116.43ZM275.646 99.6118L276.571 98.3389C276.751 97.9788 276.841 97.5288 276.841 96.9888C276.378 96.9631 275.838 97.2202 275.221 97.7603C274.604 98.2746 274.064 98.8789 273.601 99.5732C273.164 100.268 272.971 100.769 273.022 101.078C274.051 100.769 274.925 100.28 275.646 99.6118Z" fill="#855443"></path> </svg> 