<?xml version="1.0" encoding="UTF-8"?> <svg xmlns="http://www.w3.org/2000/svg" width="246" height="66" viewBox="0 0 246 66" fill="none"> <rect x="0.5" y="0.5" width="245" height="65" fill="white" stroke="#2E2E2E"></rect> <path d="M53.5127 36.844C53.5387 36.844 53.5517 36.87 53.5517 36.922C53.5517 36.974 53.5387 37 53.5127 37C53.2267 37 53.0013 36.9957 52.8367 36.987L51.9007 36.974L50.8737 36.987C50.709 36.9957 50.4793 37 50.1847 37C50.1587 37 50.1457 36.974 50.1457 36.922C50.1457 36.87 50.1587 36.844 50.1847 36.844C50.488 36.844 50.709 36.8223 50.8477 36.779C50.995 36.7357 51.0947 36.6533 51.1467 36.532C51.1987 36.402 51.2247 36.207 51.2247 35.947V30.045C51.2247 29.7503 51.2117 29.5553 51.1857 29.46C51.1597 29.3647 51.099 29.304 51.0037 29.278C50.917 29.252 50.7307 29.239 50.4447 29.239H47.7797C47.485 29.239 47.2857 29.252 47.1817 29.278C47.0777 29.304 47.0127 29.369 46.9867 29.473C46.9607 29.5683 46.9477 29.759 46.9477 30.045V35.947C46.9477 36.207 46.9737 36.402 47.0257 36.532C47.0777 36.6533 47.173 36.7357 47.3117 36.779C47.4503 36.8223 47.6757 36.844 47.9877 36.844C48.0137 36.844 48.0267 36.87 48.0267 36.922C48.0267 36.974 48.0137 37 47.9877 37C47.7017 37 47.472 36.9957 47.2987 36.987L46.2587 36.974L45.3357 36.987C45.171 36.9957 44.9413 37 44.6467 37C44.6293 37 44.6207 36.974 44.6207 36.922C44.6207 36.87 44.6293 36.844 44.6467 36.844C44.9587 36.844 45.1883 36.8223 45.3357 36.779C45.483 36.7357 45.5827 36.6533 45.6347 36.532C45.6867 36.402 45.7127 36.207 45.7127 35.947V30.084C45.7127 29.694 45.6433 29.421 45.5047 29.265C45.366 29.109 45.0843 29.031 44.6597 29.031C44.6423 29.031 44.6337 29.005 44.6337 28.953C44.6337 28.901 44.6423 28.875 44.6597 28.875C44.9543 28.875 45.2403 28.8793 45.5177 28.888C46.679 28.9053 47.8837 28.914 49.1317 28.914C50.2843 28.914 51.6017 28.901 53.0837 28.875H53.5127C53.5387 28.875 53.5517 28.901 53.5517 28.953C53.5517 29.005 53.5387 29.031 53.5127 29.031C53.088 29.031 52.8063 29.109 52.6677 29.265C52.529 29.421 52.4597 29.694 52.4597 30.084V35.947C52.4597 36.207 52.4857 36.402 52.5377 36.532C52.5897 36.6533 52.6893 36.7357 52.8367 36.779C52.984 36.8223 53.2093 36.844 53.5127 36.844ZM59.3633 37.156C58.5573 37.156 57.8379 36.9697 57.2053 36.597C56.5813 36.2157 56.0959 35.7043 55.7493 35.063C55.4113 34.413 55.2423 33.7067 55.2423 32.944C55.2423 32.0513 55.4676 31.2887 55.9183 30.656C56.3689 30.0147 56.9453 29.5337 57.6473 29.213C58.3579 28.8923 59.0816 28.732 59.8183 28.732C60.6416 28.732 61.3653 28.927 61.9893 29.317C62.6133 29.6983 63.0899 30.2053 63.4193 30.838C63.7573 31.4707 63.9263 32.1423 63.9263 32.853C63.9263 33.6417 63.7183 34.3653 63.3023 35.024C62.8863 35.6827 62.3273 36.2027 61.6253 36.584C60.9319 36.9653 60.1779 37.156 59.3633 37.156ZM59.8053 36.844C60.3253 36.844 60.7889 36.7053 61.1963 36.428C61.6123 36.142 61.9373 35.726 62.1713 35.18C62.4139 34.634 62.5353 33.984 62.5353 33.23C62.5353 32.4327 62.4009 31.7177 62.1323 31.085C61.8723 30.4523 61.4953 29.9583 61.0013 29.603C60.5159 29.2477 59.9439 29.07 59.2853 29.07C58.4446 29.07 57.7903 29.3733 57.3223 29.98C56.8629 30.578 56.6333 31.41 56.6333 32.476C56.6333 33.2993 56.7676 34.0447 57.0363 34.712C57.3136 35.3793 57.6906 35.9037 58.1673 36.285C58.6526 36.6577 59.1986 36.844 59.8053 36.844ZM70.6554 28.732C71.0454 28.732 71.4484 28.7667 71.8644 28.836C72.2891 28.9053 72.6227 29.0007 72.8654 29.122C72.9434 29.148 72.9911 29.1827 73.0084 29.226C73.0344 29.2607 73.0517 29.3257 73.0604 29.421L73.2164 31.111C73.2164 31.137 73.1947 31.1543 73.1514 31.163C73.1081 31.1717 73.0821 31.1587 73.0734 31.124C72.8221 30.448 72.4407 29.9323 71.9294 29.577C71.4267 29.2217 70.8331 29.044 70.1484 29.044C69.2471 29.044 68.5407 29.3603 68.0294 29.993C67.5181 30.6257 67.2624 31.475 67.2624 32.541C67.2624 33.3383 67.4011 34.0707 67.6784 34.738C67.9644 35.4053 68.3544 35.934 68.8484 36.324C69.3511 36.714 69.9101 36.909 70.5254 36.909C71.6954 36.909 72.5837 36.181 73.1904 34.725C73.1991 34.6903 73.2251 34.6773 73.2684 34.686C73.3204 34.6947 73.3464 34.712 73.3464 34.738L73.1514 36.402C73.1341 36.506 73.1124 36.5753 73.0864 36.61C73.0691 36.636 73.0214 36.6663 72.9434 36.701C72.1894 37.0043 71.3877 37.156 70.5384 37.156C69.4811 37.156 68.6014 36.948 67.8994 36.532C67.1974 36.1073 66.6774 35.57 66.3394 34.92C66.0101 34.27 65.8454 33.594 65.8454 32.892C65.8454 32.0773 66.0664 31.3537 66.5084 30.721C66.9591 30.0883 67.5527 29.5987 68.2894 29.252C69.0261 28.9053 69.8147 28.732 70.6554 28.732ZM77.2977 29.148C76.769 29.148 76.3314 29.3127 75.9847 29.642C75.6467 29.9627 75.3867 30.4523 75.2047 31.111C75.2047 31.1283 75.1787 31.137 75.1267 31.137C75.0834 31.137 75.0617 31.124 75.0617 31.098C75.0964 30.76 75.1354 30.3267 75.1787 29.798C75.222 29.2607 75.2437 28.8577 75.2437 28.589C75.2437 28.5457 75.2654 28.524 75.3087 28.524C75.3607 28.524 75.3867 28.5457 75.3867 28.589C75.3867 28.7797 75.6294 28.875 76.1147 28.875C76.86 28.901 77.731 28.914 78.7277 28.914C79.239 28.914 79.7807 28.9053 80.3527 28.888L81.2367 28.875C81.566 28.875 81.8044 28.8533 81.9517 28.81C82.1077 28.7667 82.2074 28.68 82.2507 28.55C82.2594 28.5153 82.2854 28.498 82.3287 28.498C82.372 28.498 82.3937 28.5153 82.3937 28.55C82.3677 28.8187 82.3417 29.226 82.3157 29.772C82.2897 30.318 82.2767 30.76 82.2767 31.098C82.2767 31.124 82.2507 31.137 82.1987 31.137C82.1554 31.137 82.1294 31.124 82.1207 31.098C82.034 30.4307 81.8304 29.941 81.5097 29.629C81.189 29.3083 80.7557 29.148 80.2097 29.148C79.967 29.148 79.785 29.1697 79.6637 29.213C79.551 29.2563 79.473 29.3343 79.4297 29.447C79.395 29.551 79.3777 29.72 79.3777 29.954V35.947C79.3777 36.2157 79.4037 36.4107 79.4557 36.532C79.5077 36.6533 79.6117 36.7357 79.7677 36.779C79.9237 36.8223 80.1707 36.844 80.5087 36.844C80.5347 36.844 80.5477 36.87 80.5477 36.922C80.5477 36.974 80.5347 37 80.5087 37C80.2054 37 79.967 36.9957 79.7937 36.987L78.7277 36.974L77.7137 36.987C77.5317 36.9957 77.2804 37 76.9597 37C76.9424 37 76.9337 36.974 76.9337 36.922C76.9337 36.87 76.9424 36.844 76.9597 36.844C77.2977 36.844 77.5447 36.8223 77.7007 36.779C77.8654 36.7357 77.9737 36.6533 78.0257 36.532C78.0864 36.402 78.1167 36.207 78.1167 35.947V29.928C78.1167 29.7027 78.095 29.538 78.0517 29.434C78.0084 29.33 77.9304 29.2563 77.8177 29.213C77.705 29.1697 77.5317 29.148 77.2977 29.148ZM86.2241 35.895C86.2241 36.1723 86.2545 36.376 86.3151 36.506C86.3845 36.6273 86.5101 36.714 86.6921 36.766C86.8828 36.818 87.1775 36.844 87.5761 36.844C87.6021 36.844 87.6151 36.87 87.6151 36.922C87.6151 36.974 87.6021 37 87.5761 37C87.2208 37 86.9435 36.9957 86.7441 36.987L85.6131 36.974L84.6771 36.987C84.5125 36.9957 84.2871 37 84.0011 37C83.9751 37 83.9621 36.974 83.9621 36.922C83.9621 36.87 83.9751 36.844 84.0011 36.844C84.2958 36.844 84.5081 36.8223 84.6381 36.779C84.7681 36.7357 84.8548 36.6533 84.8981 36.532C84.9501 36.4107 84.9761 36.2157 84.9761 35.947V29.928C84.9761 29.668 84.9501 29.4773 84.8981 29.356C84.8548 29.2347 84.7638 29.1523 84.6251 29.109C84.4951 29.057 84.2871 29.031 84.0011 29.031C83.9751 29.031 83.9621 29.005 83.9621 28.953C83.9621 28.901 83.9751 28.875 84.0011 28.875L84.6771 28.888C85.0585 28.9053 85.3661 28.914 85.6001 28.914C85.7995 28.914 86.0421 28.901 86.3281 28.875C86.4321 28.8663 86.5708 28.8577 86.7441 28.849C86.9261 28.8403 87.1385 28.836 87.3811 28.836C88.2391 28.836 88.9151 29.018 89.4091 29.382C89.9118 29.746 90.1631 30.305 90.1631 31.059C90.1631 31.605 90.0201 32.0687 89.7341 32.45C89.4568 32.8313 89.0971 33.1173 88.6551 33.308C88.2218 33.4987 87.7755 33.594 87.3161 33.594C87.0735 33.594 86.8698 33.5723 86.7051 33.529C86.6791 33.529 86.6661 33.5073 86.6661 33.464C86.6661 33.438 86.6705 33.412 86.6791 33.386C86.6965 33.36 86.7138 33.3513 86.7311 33.36C86.8698 33.3947 87.0215 33.412 87.1861 33.412C87.6368 33.412 88.0181 33.2257 88.3301 32.853C88.6421 32.4803 88.7981 31.9473 88.7981 31.254C88.7981 30.5693 88.6378 30.0407 88.3171 29.668C87.9965 29.2867 87.5545 29.096 86.9911 29.096C86.7831 29.096 86.6228 29.1177 86.5101 29.161C86.4061 29.2043 86.3325 29.2867 86.2891 29.408C86.2458 29.5207 86.2241 29.7027 86.2241 29.954V35.895ZM96.0756 37.156C95.2696 37.156 94.5502 36.9697 93.9176 36.597C93.2936 36.2157 92.8082 35.7043 92.4616 35.063C92.1236 34.413 91.9546 33.7067 91.9546 32.944C91.9546 32.0513 92.1799 31.2887 92.6306 30.656C93.0812 30.0147 93.6576 29.5337 94.3596 29.213C95.0702 28.8923 95.7939 28.732 96.5306 28.732C97.3539 28.732 98.0776 28.927 98.7016 29.317C99.3256 29.6983 99.8022 30.2053 100.132 30.838C100.47 31.4707 100.639 32.1423 100.639 32.853C100.639 33.6417 100.431 34.3653 100.015 35.024C99.5986 35.6827 99.0396 36.2027 98.3376 36.584C97.6442 36.9653 96.8902 37.156 96.0756 37.156ZM96.5176 36.844C97.0376 36.844 97.5012 36.7053 97.9086 36.428C98.3246 36.142 98.6496 35.726 98.8836 35.18C99.1262 34.634 99.2476 33.984 99.2476 33.23C99.2476 32.4327 99.1132 31.7177 98.8446 31.085C98.5846 30.4523 98.2076 29.9583 97.7136 29.603C97.2282 29.2477 96.6562 29.07 95.9976 29.07C95.1569 29.07 94.5026 29.3733 94.0346 29.98C93.5752 30.578 93.3456 31.41 93.3456 32.476C93.3456 33.2993 93.4799 34.0447 93.7486 34.712C94.0259 35.3793 94.4029 35.9037 94.8796 36.285C95.3649 36.6577 95.9109 36.844 96.5176 36.844ZM111.45 36.844C111.476 36.844 111.489 36.87 111.489 36.922C111.489 36.974 111.476 37 111.45 37C111.155 37 110.921 36.9957 110.748 36.987L109.773 36.974L108.681 36.987C108.525 36.9957 108.317 37 108.057 37C108.031 37 108.018 36.974 108.018 36.922C108.018 36.87 108.031 36.844 108.057 36.844C108.386 36.844 108.624 36.8223 108.772 36.779C108.919 36.7357 109.019 36.6533 109.071 36.532C109.123 36.4107 109.149 36.2157 109.149 35.947V30.396L103.819 37.13C103.793 37.1647 103.732 37.182 103.637 37.182C103.481 37.182 103.403 37.1517 103.403 37.091V29.928C103.403 29.668 103.377 29.4773 103.325 29.356C103.273 29.2347 103.173 29.1523 103.026 29.109C102.887 29.057 102.662 29.031 102.35 29.031C102.324 29.031 102.311 29.005 102.311 28.953C102.311 28.901 102.324 28.875 102.35 28.875L103.052 28.888C103.468 28.9053 103.793 28.914 104.027 28.914C104.339 28.914 104.703 28.9053 105.119 28.888L105.743 28.875C105.769 28.875 105.782 28.901 105.782 28.953C105.782 29.005 105.769 29.031 105.743 29.031C105.413 29.031 105.175 29.057 105.028 29.109C104.88 29.1523 104.781 29.2347 104.729 29.356C104.677 29.4773 104.651 29.668 104.651 29.928V35.531L109.981 28.797C110.007 28.771 110.067 28.758 110.163 28.758C110.223 28.758 110.275 28.7667 110.319 28.784C110.371 28.8013 110.397 28.823 110.397 28.849V35.947C110.397 36.207 110.423 36.402 110.475 36.532C110.527 36.6533 110.622 36.7357 110.761 36.779C110.908 36.8223 111.138 36.844 111.45 36.844ZM115.267 29.148C114.738 29.148 114.301 29.3127 113.954 29.642C113.616 29.9627 113.356 30.4523 113.174 31.111C113.174 31.1283 113.148 31.137 113.096 31.137C113.053 31.137 113.031 31.124 113.031 31.098C113.066 30.76 113.105 30.3267 113.148 29.798C113.191 29.2607 113.213 28.8577 113.213 28.589C113.213 28.5457 113.235 28.524 113.278 28.524C113.33 28.524 113.356 28.5457 113.356 28.589C113.356 28.7797 113.599 28.875 114.084 28.875C114.829 28.901 115.7 28.914 116.697 28.914C117.208 28.914 117.75 28.9053 118.322 28.888L119.206 28.875C119.535 28.875 119.774 28.8533 119.921 28.81C120.077 28.7667 120.177 28.68 120.22 28.55C120.229 28.5153 120.255 28.498 120.298 28.498C120.341 28.498 120.363 28.5153 120.363 28.55C120.337 28.8187 120.311 29.226 120.285 29.772C120.259 30.318 120.246 30.76 120.246 31.098C120.246 31.124 120.22 31.137 120.168 31.137C120.125 31.137 120.099 31.124 120.09 31.098C120.003 30.4307 119.8 29.941 119.479 29.629C119.158 29.3083 118.725 29.148 118.179 29.148C117.936 29.148 117.754 29.1697 117.633 29.213C117.52 29.2563 117.442 29.3343 117.399 29.447C117.364 29.551 117.347 29.72 117.347 29.954V35.947C117.347 36.2157 117.373 36.4107 117.425 36.532C117.477 36.6533 117.581 36.7357 117.737 36.779C117.893 36.8223 118.14 36.844 118.478 36.844C118.504 36.844 118.517 36.87 118.517 36.922C118.517 36.974 118.504 37 118.478 37C118.175 37 117.936 36.9957 117.763 36.987L116.697 36.974L115.683 36.987C115.501 36.9957 115.25 37 114.929 37C114.912 37 114.903 36.974 114.903 36.922C114.903 36.87 114.912 36.844 114.929 36.844C115.267 36.844 115.514 36.8223 115.67 36.779C115.835 36.7357 115.943 36.6533 115.995 36.532C116.056 36.402 116.086 36.207 116.086 35.947V29.928C116.086 29.7027 116.064 29.538 116.021 29.434C115.978 29.33 115.9 29.2563 115.787 29.213C115.674 29.1697 115.501 29.148 115.267 29.148ZM125.636 32.411C126.52 32.411 127.201 32.5887 127.677 32.944C128.154 33.2907 128.392 33.8237 128.392 34.543C128.392 35.0457 128.271 35.4877 128.028 35.869C127.794 36.2417 127.461 36.532 127.027 36.74C126.603 36.948 126.113 37.052 125.558 37.052C125.342 37.052 125.077 37.039 124.765 37.013C124.037 36.987 123.647 36.974 123.595 36.974L122.763 36.987C122.59 36.9957 122.347 37 122.035 37C122.009 37 121.996 36.974 121.996 36.922C121.996 36.87 122.009 36.844 122.035 36.844C122.339 36.8353 122.555 36.8137 122.685 36.779C122.815 36.7357 122.906 36.6577 122.958 36.545C123.01 36.4237 123.036 36.2243 123.036 35.947V29.928C123.036 29.6507 123.01 29.4557 122.958 29.343C122.915 29.2217 122.828 29.1437 122.698 29.109C122.568 29.0743 122.352 29.0483 122.048 29.031C122.031 29.031 122.022 29.005 122.022 28.953C122.022 28.901 122.031 28.875 122.048 28.875L122.685 28.888C123.067 28.9053 123.387 28.914 123.647 28.914C123.916 28.914 124.258 28.9053 124.674 28.888L125.376 28.875C125.402 28.875 125.415 28.901 125.415 28.953C125.415 29.005 125.402 29.031 125.376 29.031C125.047 29.0483 124.809 29.0787 124.661 29.122C124.523 29.1567 124.423 29.2347 124.362 29.356C124.31 29.4773 124.284 29.6767 124.284 29.954V32.528C124.735 32.45 125.186 32.411 125.636 32.411ZM125.324 36.753C125.957 36.753 126.408 36.597 126.676 36.285C126.945 35.9643 127.079 35.466 127.079 34.79C127.079 34.0707 126.932 33.5507 126.637 33.23C126.343 32.9007 125.875 32.736 125.233 32.736C124.999 32.736 124.683 32.7663 124.284 32.827V35.947C124.284 36.2243 124.349 36.428 124.479 36.558C124.618 36.688 124.9 36.753 125.324 36.753ZM143.95 36.844C143.967 36.844 143.976 36.87 143.976 36.922C143.976 36.974 143.967 37 143.95 37C143.664 37 143.434 36.9957 143.261 36.987L142.325 36.974L141.415 36.987C141.259 36.9957 141.038 37 140.752 37C140.735 37 140.726 36.974 140.726 36.922C140.726 36.87 140.735 36.844 140.752 36.844C141.133 36.844 141.389 36.8007 141.519 36.714C141.649 36.6273 141.714 36.4453 141.714 36.168L141.701 35.947L141.441 30.435L138.672 36.909C138.655 36.9437 138.62 36.961 138.568 36.961C138.525 36.961 138.486 36.9437 138.451 36.909L135.201 30.487L135.084 35.427C135.075 35.8863 135.162 36.2373 135.344 36.48C135.535 36.7227 135.816 36.844 136.189 36.844C136.215 36.844 136.228 36.87 136.228 36.922C136.228 36.974 136.215 37 136.189 37C135.955 37 135.773 36.9957 135.643 36.987L134.928 36.974L134.161 36.987C134.031 36.9957 133.849 37 133.615 37C133.589 37 133.576 36.974 133.576 36.922C133.576 36.87 133.589 36.844 133.615 36.844C133.97 36.844 134.243 36.7227 134.434 36.48C134.633 36.2373 134.737 35.8863 134.746 35.427L134.863 29.837C134.707 29.5597 134.534 29.356 134.343 29.226C134.161 29.096 133.949 29.031 133.706 29.031C133.68 29.031 133.667 29.005 133.667 28.953C133.667 28.901 133.68 28.875 133.706 28.875L134.265 28.888C134.378 28.8967 134.525 28.901 134.707 28.901L135.318 28.888C135.387 28.8793 135.474 28.875 135.578 28.875C135.691 28.875 135.782 28.9183 135.851 29.005C135.92 29.083 136.029 29.265 136.176 29.551L139.036 35.128L141.623 29.2C141.675 29.0787 141.731 28.9963 141.792 28.953C141.853 28.901 141.926 28.875 142.013 28.875C142.074 28.875 142.152 28.8793 142.247 28.888C142.342 28.8967 142.459 28.901 142.598 28.901L143.3 28.888C143.413 28.8793 143.582 28.875 143.807 28.875C143.824 28.875 143.833 28.901 143.833 28.953C143.833 29.005 143.824 29.031 143.807 29.031C143.391 29.031 143.088 29.109 142.897 29.265C142.715 29.4123 142.633 29.6593 142.65 30.006L142.949 35.947C142.966 36.2157 142.997 36.4107 143.04 36.532C143.092 36.6533 143.183 36.7357 143.313 36.779C143.443 36.8223 143.655 36.844 143.95 36.844ZM154.15 36.844C154.193 36.844 154.215 36.87 154.215 36.922C154.215 36.974 154.193 37 154.15 37C153.985 37 153.721 36.9913 153.357 36.974C152.993 36.9567 152.729 36.948 152.564 36.948C152.347 36.948 152.092 36.9567 151.797 36.974C151.502 36.9913 151.273 37 151.108 37C151.073 37 151.056 36.974 151.056 36.922C151.056 36.87 151.073 36.844 151.108 36.844C151.359 36.844 151.541 36.818 151.654 36.766C151.775 36.7053 151.836 36.61 151.836 36.48C151.836 36.35 151.762 36.129 151.615 35.817L150.211 32.97H147.858L146.857 35.219C146.744 35.479 146.688 35.713 146.688 35.921C146.688 36.2243 146.796 36.454 147.013 36.61C147.23 36.766 147.533 36.844 147.923 36.844C147.966 36.844 147.988 36.87 147.988 36.922C147.988 36.974 147.966 37 147.923 37C147.767 37 147.542 36.9913 147.247 36.974C146.918 36.9567 146.632 36.948 146.389 36.948C146.155 36.948 145.882 36.9567 145.57 36.974C145.293 36.9913 145.063 37 144.881 37C144.838 37 144.816 36.974 144.816 36.922C144.816 36.87 144.838 36.844 144.881 36.844C145.124 36.844 145.327 36.7963 145.492 36.701C145.657 36.6057 145.817 36.4367 145.973 36.194C146.129 35.9427 146.315 35.5743 146.532 35.089L149.327 28.797C149.344 28.771 149.383 28.758 149.444 28.758C149.505 28.758 149.539 28.771 149.548 28.797L152.733 35.219C153.036 35.843 153.288 36.272 153.487 36.506C153.695 36.7313 153.916 36.844 154.15 36.844ZM148.001 32.645H150.055L148.976 30.461L148.001 32.645ZM157.503 35.895C157.503 36.1723 157.534 36.376 157.594 36.506C157.664 36.6273 157.789 36.714 157.971 36.766C158.162 36.818 158.457 36.844 158.855 36.844C158.881 36.844 158.894 36.87 158.894 36.922C158.894 36.974 158.881 37 158.855 37C158.5 37 158.223 36.9957 158.023 36.987L156.892 36.974L155.956 36.987C155.792 36.9957 155.566 37 155.28 37C155.254 37 155.241 36.974 155.241 36.922C155.241 36.87 155.254 36.844 155.28 36.844C155.575 36.844 155.787 36.8223 155.917 36.779C156.047 36.7357 156.134 36.6533 156.177 36.532C156.229 36.4107 156.255 36.2157 156.255 35.947V29.928C156.255 29.668 156.229 29.4773 156.177 29.356C156.134 29.2347 156.043 29.1523 155.904 29.109C155.774 29.057 155.566 29.031 155.28 29.031C155.254 29.031 155.241 29.005 155.241 28.953C155.241 28.901 155.254 28.875 155.28 28.875L155.956 28.888C156.338 28.9053 156.645 28.914 156.879 28.914C157.079 28.914 157.321 28.901 157.607 28.875C157.711 28.8663 157.85 28.8577 158.023 28.849C158.205 28.8403 158.418 28.836 158.66 28.836C159.518 28.836 160.194 29.018 160.688 29.382C161.191 29.746 161.442 30.305 161.442 31.059C161.442 31.605 161.299 32.0687 161.013 32.45C160.736 32.8313 160.376 33.1173 159.934 33.308C159.501 33.4987 159.055 33.594 158.595 33.594C158.353 33.594 158.149 33.5723 157.984 33.529C157.958 33.529 157.945 33.5073 157.945 33.464C157.945 33.438 157.95 33.412 157.958 33.386C157.976 33.36 157.993 33.3513 158.01 33.36C158.149 33.3947 158.301 33.412 158.465 33.412C158.916 33.412 159.297 33.2257 159.609 32.853C159.921 32.4803 160.077 31.9473 160.077 31.254C160.077 30.5693 159.917 30.0407 159.596 29.668C159.276 29.2867 158.834 29.096 158.27 29.096C158.062 29.096 157.902 29.1177 157.789 29.161C157.685 29.2043 157.612 29.2867 157.568 29.408C157.525 29.5207 157.503 29.7027 157.503 29.954V35.895ZM163.013 37C162.995 37 162.987 36.974 162.987 36.922C162.987 36.87 162.995 36.844 163.013 36.844C163.325 36.844 163.554 36.8223 163.702 36.779C163.849 36.7357 163.949 36.6533 164.001 36.532C164.053 36.402 164.079 36.207 164.079 35.947V29.928C164.079 29.668 164.053 29.4773 164.001 29.356C163.949 29.2347 163.849 29.1523 163.702 29.109C163.554 29.057 163.325 29.031 163.013 29.031C162.995 29.031 162.987 29.005 162.987 28.953C162.987 28.901 162.995 28.875 163.013 28.875L163.702 28.888C164.083 28.9053 164.391 28.914 164.625 28.914C164.885 28.914 165.223 28.9053 165.639 28.888L166.315 28.875C166.341 28.875 166.354 28.901 166.354 28.953C166.354 29.005 166.341 29.031 166.315 29.031C166.02 29.031 165.803 29.057 165.665 29.109C165.526 29.1523 165.431 29.2347 165.379 29.356C165.335 29.4773 165.314 29.668 165.314 29.928V35.921C165.314 36.2157 165.327 36.4107 165.353 36.506C165.379 36.6013 165.435 36.662 165.522 36.688C165.617 36.714 165.803 36.727 166.081 36.727H167.979C168.265 36.727 168.46 36.714 168.564 36.688C168.676 36.6533 168.746 36.5883 168.772 36.493C168.806 36.389 168.824 36.1983 168.824 35.921V29.928C168.824 29.668 168.798 29.4773 168.746 29.356C168.694 29.2347 168.598 29.1523 168.46 29.109C168.321 29.057 168.104 29.031 167.81 29.031C167.784 29.031 167.771 29.005 167.771 28.953C167.771 28.901 167.784 28.875 167.81 28.875C168.642 28.901 169.188 28.914 169.448 28.914C169.682 28.914 169.989 28.9053 170.371 28.888L171.086 28.875C171.103 28.875 171.112 28.901 171.112 28.953C171.112 29.005 171.103 29.031 171.086 29.031C170.782 29.031 170.561 29.057 170.423 29.109C170.284 29.1523 170.189 29.2347 170.137 29.356C170.085 29.4773 170.059 29.668 170.059 29.928V35.934C170.059 36.2027 170.076 36.389 170.111 36.493C170.154 36.597 170.223 36.662 170.319 36.688C170.423 36.714 170.613 36.727 170.891 36.727H172.737C173.04 36.727 173.239 36.714 173.335 36.688C173.439 36.662 173.504 36.6013 173.53 36.506C173.556 36.4107 173.569 36.2157 173.569 35.921V29.928C173.569 29.668 173.543 29.4773 173.491 29.356C173.447 29.2347 173.356 29.1523 173.218 29.109C173.079 29.057 172.862 29.031 172.568 29.031C172.542 29.031 172.529 29.005 172.529 28.953C172.529 28.901 172.542 28.875 172.568 28.875L173.257 28.888C173.655 28.9053 173.989 28.914 174.258 28.914C174.5 28.914 174.812 28.9053 175.194 28.888L175.87 28.875C175.896 28.875 175.909 28.901 175.909 28.953C175.909 29.005 175.896 29.031 175.87 29.031C175.558 29.031 175.328 29.057 175.181 29.109C175.042 29.1523 174.947 29.2347 174.895 29.356C174.843 29.4773 174.817 29.668 174.817 29.928V35.947C174.817 36.207 174.843 36.3977 174.895 36.519C174.955 36.6403 175.055 36.727 175.194 36.779C175.341 36.8223 175.566 36.844 175.87 36.844C175.896 36.844 175.909 36.87 175.909 36.922C175.909 36.974 175.896 37 175.87 37H163.013ZM179.649 35.895C179.649 36.1723 179.679 36.376 179.74 36.506C179.809 36.6273 179.935 36.714 180.117 36.766C180.308 36.818 180.602 36.844 181.001 36.844C181.027 36.844 181.04 36.87 181.04 36.922C181.04 36.974 181.027 37 181.001 37C180.646 37 180.368 36.9957 180.169 36.987L179.038 36.974L178.102 36.987C177.937 36.9957 177.712 37 177.426 37C177.4 37 177.387 36.974 177.387 36.922C177.387 36.87 177.4 36.844 177.426 36.844C177.721 36.844 177.933 36.8223 178.063 36.779C178.193 36.7357 178.28 36.6533 178.323 36.532C178.375 36.4107 178.401 36.2157 178.401 35.947V29.928C178.401 29.668 178.375 29.4773 178.323 29.356C178.28 29.2347 178.189 29.1523 178.05 29.109C177.92 29.057 177.712 29.031 177.426 29.031C177.4 29.031 177.387 29.005 177.387 28.953C177.387 28.901 177.4 28.875 177.426 28.875L178.102 28.888C178.483 28.9053 178.791 28.914 179.025 28.914C179.224 28.914 179.467 28.901 179.753 28.875C179.857 28.8663 179.996 28.8577 180.169 28.849C180.351 28.8403 180.563 28.836 180.806 28.836C181.664 28.836 182.34 29.018 182.834 29.382C183.337 29.746 183.588 30.305 183.588 31.059C183.588 31.605 183.445 32.0687 183.159 32.45C182.882 32.8313 182.522 33.1173 182.08 33.308C181.647 33.4987 181.2 33.594 180.741 33.594C180.498 33.594 180.295 33.5723 180.13 33.529C180.104 33.529 180.091 33.5073 180.091 33.464C180.091 33.438 180.095 33.412 180.104 33.386C180.121 33.36 180.139 33.3513 180.156 33.36C180.295 33.3947 180.446 33.412 180.611 33.412C181.062 33.412 181.443 33.2257 181.755 32.853C182.067 32.4803 182.223 31.9473 182.223 31.254C182.223 30.5693 182.063 30.0407 181.742 29.668C181.421 29.2867 180.979 29.096 180.416 29.096C180.208 29.096 180.048 29.1177 179.935 29.161C179.831 29.2043 179.757 29.2867 179.714 29.408C179.671 29.5207 179.649 29.7027 179.649 29.954V35.895ZM192.867 28.875C192.893 28.875 192.906 28.901 192.906 28.953C192.906 29.005 192.893 29.031 192.867 29.031C192.633 29.031 192.391 29.135 192.139 29.343C191.888 29.551 191.684 29.824 191.528 30.162L188.928 36.051C188.755 36.4497 188.564 36.7357 188.356 36.909C188.148 37.0737 187.88 37.156 187.55 37.156C187.23 37.156 186.965 37.0867 186.757 36.948C186.558 36.8007 186.458 36.61 186.458 36.376C186.458 36.2027 186.515 36.0553 186.627 35.934C186.74 35.804 186.896 35.739 187.095 35.739C187.286 35.739 187.425 35.7867 187.511 35.882C187.598 35.9773 187.676 36.116 187.745 36.298C187.797 36.4193 187.841 36.5103 187.875 36.571C187.919 36.623 187.979 36.649 188.057 36.649C188.144 36.649 188.226 36.6057 188.304 36.519C188.391 36.4237 188.486 36.259 188.59 36.025L188.863 35.388L186.016 29.954C185.834 29.6073 185.67 29.369 185.522 29.239C185.375 29.1003 185.176 29.031 184.924 29.031C184.907 29.031 184.898 29.005 184.898 28.953C184.898 28.901 184.907 28.875 184.924 28.875L185.353 28.888C185.613 28.9053 185.917 28.914 186.263 28.914C186.775 28.914 187.23 28.9053 187.628 28.888C187.741 28.8793 187.884 28.875 188.057 28.875C188.083 28.875 188.096 28.901 188.096 28.953C188.096 29.005 188.083 29.031 188.057 29.031C187.511 29.031 187.238 29.1697 187.238 29.447C187.238 29.5423 187.277 29.668 187.355 29.824L189.474 33.997L191.164 30.149C191.242 29.967 191.281 29.8067 191.281 29.668C191.281 29.4687 191.199 29.3127 191.034 29.2C190.878 29.0873 190.644 29.031 190.332 29.031C190.315 29.031 190.306 29.005 190.306 28.953C190.306 28.901 190.315 28.875 190.332 28.875L190.904 28.888C191.216 28.9053 191.502 28.914 191.762 28.914C191.936 28.914 192.126 28.9053 192.334 28.888L192.867 28.875ZM196.197 29.148C195.668 29.148 195.231 29.3127 194.884 29.642C194.546 29.9627 194.286 30.4523 194.104 31.111C194.104 31.1283 194.078 31.137 194.026 31.137C193.983 31.137 193.961 31.124 193.961 31.098C193.996 30.76 194.035 30.3267 194.078 29.798C194.121 29.2607 194.143 28.8577 194.143 28.589C194.143 28.5457 194.165 28.524 194.208 28.524C194.26 28.524 194.286 28.5457 194.286 28.589C194.286 28.7797 194.529 28.875 195.014 28.875C195.759 28.901 196.63 28.914 197.627 28.914C198.138 28.914 198.68 28.9053 199.252 28.888L200.136 28.875C200.465 28.875 200.704 28.8533 200.851 28.81C201.007 28.7667 201.107 28.68 201.15 28.55C201.159 28.5153 201.185 28.498 201.228 28.498C201.271 28.498 201.293 28.5153 201.293 28.55C201.267 28.8187 201.241 29.226 201.215 29.772C201.189 30.318 201.176 30.76 201.176 31.098C201.176 31.124 201.15 31.137 201.098 31.137C201.055 31.137 201.029 31.124 201.02 31.098C200.933 30.4307 200.73 29.941 200.409 29.629C200.088 29.3083 199.655 29.148 199.109 29.148C198.866 29.148 198.684 29.1697 198.563 29.213C198.45 29.2563 198.372 29.3343 198.329 29.447C198.294 29.551 198.277 29.72 198.277 29.954V35.947C198.277 36.2157 198.303 36.4107 198.355 36.532C198.407 36.6533 198.511 36.7357 198.667 36.779C198.823 36.8223 199.07 36.844 199.408 36.844C199.434 36.844 199.447 36.87 199.447 36.922C199.447 36.974 199.434 37 199.408 37C199.105 37 198.866 36.9957 198.693 36.987L197.627 36.974L196.613 36.987C196.431 36.9957 196.18 37 195.859 37C195.842 37 195.833 36.974 195.833 36.922C195.833 36.87 195.842 36.844 195.859 36.844C196.197 36.844 196.444 36.8223 196.6 36.779C196.765 36.7357 196.873 36.6533 196.925 36.532C196.986 36.402 197.016 36.207 197.016 35.947V29.928C197.016 29.7027 196.994 29.538 196.951 29.434C196.908 29.33 196.83 29.2563 196.717 29.213C196.604 29.1697 196.431 29.148 196.197 29.148Z" fill="#2E2E2E"></path> </svg> 