<?xml version="1.0" encoding="UTF-8"?> <svg xmlns="http://www.w3.org/2000/svg" width="53" height="47" viewBox="0 0 53 47" fill="none"> <path d="M25.6686 45C25.0058 42.879 23.9894 40.9836 22.6196 39.3138C21.2498 37.599 19.7032 36.0195 17.9798 34.5754C16.3007 33.0862 14.5773 31.6195 12.8098 30.1754C11.0423 28.7313 9.4073 27.2195 7.9049 25.64C6.44669 24.0154 5.2536 22.2328 4.32565 20.2923C3.44188 18.3518 3 16.1405 3 13.6585C3 10.8605 3.55235 8.53641 4.65706 6.68615C5.76177 4.79077 7.19789 3.36923 8.96542 2.42154C10.7771 1.47385 12.7435 1 14.8646 1C17.1623 1 19.3055 1.60923 21.2939 2.82769C23.3266 4.04615 24.8953 6.12205 26 9.05539C27.1047 6.12205 28.6513 4.04615 30.6398 2.82769C32.6724 1.60923 34.8377 1 37.1354 1C39.2565 1 41.2008 1.47385 42.9683 2.42154C44.78 3.36923 46.2382 4.79077 47.3429 6.68615C48.4477 8.53641 49 10.8605 49 13.6585C49 16.1405 48.536 18.3518 47.6081 20.2923C46.7243 22.2328 45.5312 24.0154 44.0288 25.64C42.5706 27.2195 40.9577 28.7313 39.1902 30.1754C37.4227 31.6195 35.6772 33.0862 33.9539 34.5754C32.2747 36.0195 30.7502 37.599 29.3804 39.3138C28.0106 40.9836 26.9942 42.879 26.3314 45H25.6686ZM26 42.36C27.0605 40.1036 28.4745 38.0728 30.2421 36.2677C32.0096 34.4626 33.8876 32.7703 35.8761 31.1908C37.9087 29.6113 39.8088 27.9867 41.5764 26.3169C43.3881 24.6021 44.8463 22.7292 45.951 20.6985C47.0999 18.6677 47.6744 16.321 47.6744 13.6585C47.6744 11.1313 47.1883 9.03282 46.2161 7.36308C45.244 5.6482 43.9625 4.36205 42.3718 3.50462C40.781 2.64718 39.0355 2.21846 37.1354 2.21846C35.6772 2.21846 34.2411 2.53436 32.8271 3.16615C31.4573 3.79795 30.1979 4.81333 29.049 6.21231C27.9443 7.56615 27.0605 9.41641 26.3977 11.7631H25.6023C24.9395 9.41641 24.0336 7.56615 22.8847 6.21231C21.78 4.81333 20.5427 3.79795 19.1729 3.16615C17.8031 2.53436 16.367 2.21846 14.8646 2.21846C13.0086 2.21846 11.2632 2.64718 9.62824 3.50462C8.03746 4.36205 6.756 5.6482 5.78386 7.36308C4.81172 9.03282 4.32565 11.1313 4.32565 13.6585C4.32565 16.321 4.878 18.6677 5.98271 20.6985C7.1316 22.7292 8.58982 24.6021 10.3573 26.3169C12.1691 27.9867 14.0692 29.6113 16.0576 31.1908C18.0903 32.7703 19.9904 34.4626 21.7579 36.2677C23.5255 38.0728 24.9395 40.1036 26 42.36Z" fill="#855443"></path> </svg> 