<?xml version="1.0" encoding="UTF-8"?> <svg xmlns="http://www.w3.org/2000/svg" width="246" height="66" viewBox="0 0 246 66" fill="none"> <rect x="0.5" y="0.5" width="245" height="65" fill="white" stroke="#2E2E2E"></rect> <path d="M45.9076 28.3595C45.8609 28.2248 45.8052 28.187 45.719 28.1547C45.5304 28.0828 45.2106 28.1906 45.2106 28.1906C45.2106 28.1906 33.8771 32.2631 33.2303 32.714C33.0902 32.811 33.0435 32.8667 33.022 32.9332C32.9106 33.2547 33.2591 33.3966 33.2591 33.3966L36.1801 34.3487C36.1801 34.3487 36.2896 34.3649 36.3274 34.3397C36.992 33.9194 43.0136 30.1182 43.3603 29.9906C43.416 29.9745 43.4555 29.9924 43.4447 30.0302C43.3064 30.5188 38.0771 35.1661 38.0771 35.1661C38.0771 35.1661 38.0573 35.1912 38.0447 35.22L38.0375 35.2164L37.7645 38.114C37.7645 38.114 37.6495 39.0014 38.5387 38.114C39.1657 37.4871 39.7711 36.9643 40.0747 36.7092C41.0789 37.4026 42.1603 38.1697 42.6256 38.5703C42.8591 38.7715 43.0567 38.8038 43.2166 38.7984C43.6585 38.7823 43.7825 38.2954 43.7825 38.2954C43.7825 38.2954 45.8483 29.9835 45.9166 28.8697C45.9238 28.7601 45.9328 28.6918 45.9328 28.6164C45.9328 28.5122 45.9238 28.408 45.9076 28.3577V28.3595Z" fill="#2E2E2E"></path> <path d="M59.8692 37.844C59.8952 37.844 59.9082 37.87 59.9082 37.922C59.9082 37.974 59.8952 38 59.8692 38C59.5745 38 59.3362 37.9957 59.1542 37.987L58.2052 37.974L57.1002 37.987C56.9442 37.9957 56.7362 38 56.4762 38C56.4502 38 56.4372 37.974 56.4372 37.922C56.4372 37.87 56.4502 37.844 56.4762 37.844C56.8055 37.844 57.0439 37.8223 57.1912 37.779C57.3385 37.7357 57.4382 37.6533 57.4902 37.532C57.5422 37.4107 57.5682 37.2157 57.5682 36.947V33.944H53.1092V36.947C53.1092 37.207 53.1352 37.402 53.1872 37.532C53.2392 37.6533 53.3389 37.7357 53.4862 37.779C53.6422 37.8223 53.8849 37.844 54.2142 37.844C54.2315 37.844 54.2402 37.87 54.2402 37.922C54.2402 37.974 54.2315 38 54.2142 38C53.9195 38 53.6899 37.9957 53.5252 37.987L52.4462 37.974L51.4972 37.987C51.3325 37.9957 51.1029 38 50.8082 38C50.7909 38 50.7822 37.974 50.7822 37.922C50.7822 37.87 50.7909 37.844 50.8082 37.844C51.1202 37.844 51.3499 37.8223 51.4972 37.779C51.6445 37.7357 51.7442 37.6533 51.7962 37.532C51.8482 37.402 51.8742 37.207 51.8742 36.947V30.928C51.8742 30.668 51.8482 30.4773 51.7962 30.356C51.7442 30.2347 51.6445 30.1523 51.4972 30.109C51.3499 30.057 51.1245 30.031 50.8212 30.031C50.8039 30.031 50.7952 30.005 50.7952 29.953C50.7952 29.901 50.8039 29.875 50.8212 29.875L51.5102 29.888C51.9089 29.9053 52.2209 29.914 52.4462 29.914C52.7495 29.914 53.1092 29.9053 53.5252 29.888L54.2142 29.875C54.2315 29.875 54.2402 29.901 54.2402 29.953C54.2402 30.005 54.2315 30.031 54.2142 30.031C53.8935 30.031 53.6552 30.057 53.4992 30.109C53.3519 30.161 53.2479 30.252 53.1872 30.382C53.1352 30.5033 53.1092 30.694 53.1092 30.954V33.606H57.5682V30.954C57.5682 30.694 57.5422 30.5033 57.4902 30.382C57.4382 30.252 57.3342 30.161 57.1782 30.109C57.0309 30.057 56.7969 30.031 56.4762 30.031C56.4502 30.031 56.4372 30.005 56.4372 29.953C56.4372 29.901 56.4502 29.875 56.4762 29.875L57.1002 29.888C57.5162 29.9053 57.8845 29.914 58.2052 29.914C58.4392 29.914 58.7555 29.9053 59.1542 29.888L59.8692 29.875C59.8952 29.875 59.9082 29.901 59.9082 29.953C59.9082 30.005 59.8952 30.031 59.8692 30.031C59.5572 30.031 59.3275 30.057 59.1802 30.109C59.0415 30.1523 58.9462 30.2347 58.8942 30.356C58.8422 30.4773 58.8162 30.668 58.8162 30.928V36.947C58.8162 37.207 58.8422 37.402 58.8942 37.532C58.9462 37.6533 59.0415 37.7357 59.1802 37.779C59.3275 37.8223 59.5572 37.844 59.8692 37.844ZM70.1875 37.844C70.2309 37.844 70.2525 37.87 70.2525 37.922C70.2525 37.974 70.2309 38 70.1875 38C70.0229 38 69.7585 37.9913 69.3945 37.974C69.0305 37.9567 68.7662 37.948 68.6015 37.948C68.3849 37.948 68.1292 37.9567 67.8345 37.974C67.5399 37.9913 67.3102 38 67.1455 38C67.1109 38 67.0935 37.974 67.0935 37.922C67.0935 37.87 67.1109 37.844 67.1455 37.844C67.3969 37.844 67.5789 37.818 67.6915 37.766C67.8129 37.7053 67.8735 37.61 67.8735 37.48C67.8735 37.35 67.7999 37.129 67.6525 36.817L66.2485 33.97H63.8955L62.8945 36.219C62.7819 36.479 62.7255 36.713 62.7255 36.921C62.7255 37.2243 62.8339 37.454 63.0505 37.61C63.2672 37.766 63.5705 37.844 63.9605 37.844C64.0039 37.844 64.0255 37.87 64.0255 37.922C64.0255 37.974 64.0039 38 63.9605 38C63.8045 38 63.5792 37.9913 63.2845 37.974C62.9552 37.9567 62.6692 37.948 62.4265 37.948C62.1925 37.948 61.9195 37.9567 61.6075 37.974C61.3302 37.9913 61.1005 38 60.9185 38C60.8752 38 60.8535 37.974 60.8535 37.922C60.8535 37.87 60.8752 37.844 60.9185 37.844C61.1612 37.844 61.3649 37.7963 61.5295 37.701C61.6942 37.6057 61.8545 37.4367 62.0105 37.194C62.1665 36.9427 62.3529 36.5743 62.5695 36.089L65.3645 29.797C65.3819 29.771 65.4209 29.758 65.4815 29.758C65.5422 29.758 65.5769 29.771 65.5855 29.797L68.7705 36.219C69.0739 36.843 69.3252 37.272 69.5245 37.506C69.7325 37.7313 69.9535 37.844 70.1875 37.844ZM64.0385 33.645H66.0925L65.0135 31.461L64.0385 33.645ZM80.1187 37.844C80.1447 37.844 80.1577 37.87 80.1577 37.922C80.1577 37.974 80.1447 38 80.1187 38C79.8327 38 79.6074 37.9957 79.4427 37.987L78.5067 37.974L77.4797 37.987C77.3151 37.9957 77.0854 38 76.7907 38C76.7647 38 76.7517 37.974 76.7517 37.922C76.7517 37.87 76.7647 37.844 76.7907 37.844C77.0941 37.844 77.3151 37.8223 77.4537 37.779C77.6011 37.7357 77.7007 37.6533 77.7527 37.532C77.8047 37.402 77.8307 37.207 77.8307 36.947V31.045C77.8307 30.7503 77.8177 30.5553 77.7917 30.46C77.7657 30.3647 77.7051 30.304 77.6097 30.278C77.5231 30.252 77.3367 30.239 77.0507 30.239H74.3857C74.0911 30.239 73.8917 30.252 73.7877 30.278C73.6837 30.304 73.6187 30.369 73.5927 30.473C73.5667 30.5683 73.5537 30.759 73.5537 31.045V36.947C73.5537 37.207 73.5797 37.402 73.6317 37.532C73.6837 37.6533 73.7791 37.7357 73.9177 37.779C74.0564 37.8223 74.2817 37.844 74.5937 37.844C74.6197 37.844 74.6327 37.87 74.6327 37.922C74.6327 37.974 74.6197 38 74.5937 38C74.3077 38 74.0781 37.9957 73.9047 37.987L72.8647 37.974L71.9417 37.987C71.7771 37.9957 71.5474 38 71.2527 38C71.2354 38 71.2267 37.974 71.2267 37.922C71.2267 37.87 71.2354 37.844 71.2527 37.844C71.5647 37.844 71.7944 37.8223 71.9417 37.779C72.0891 37.7357 72.1887 37.6533 72.2407 37.532C72.2927 37.402 72.3187 37.207 72.3187 36.947V31.084C72.3187 30.694 72.2494 30.421 72.1107 30.265C71.9721 30.109 71.6904 30.031 71.2657 30.031C71.2484 30.031 71.2397 30.005 71.2397 29.953C71.2397 29.901 71.2484 29.875 71.2657 29.875C71.5604 29.875 71.8464 29.8793 72.1237 29.888C73.2851 29.9053 74.4897 29.914 75.7377 29.914C76.8904 29.914 78.2077 29.901 79.6897 29.875H80.1187C80.1447 29.875 80.1577 29.901 80.1577 29.953C80.1577 30.005 80.1447 30.031 80.1187 30.031C79.6941 30.031 79.4124 30.109 79.2737 30.265C79.1351 30.421 79.0657 30.694 79.0657 31.084V36.947C79.0657 37.207 79.0917 37.402 79.1437 37.532C79.1957 37.6533 79.2954 37.7357 79.4427 37.779C79.5901 37.8223 79.8154 37.844 80.1187 37.844ZM90.7403 37.844C90.7663 37.844 90.7793 37.87 90.7793 37.922C90.7793 37.974 90.7663 38 90.7403 38C90.4457 38 90.2117 37.9957 90.0383 37.987L89.0633 37.974L87.9713 37.987C87.8153 37.9957 87.6073 38 87.3473 38C87.3213 38 87.3083 37.974 87.3083 37.922C87.3083 37.87 87.3213 37.844 87.3473 37.844C87.6767 37.844 87.915 37.8223 88.0623 37.779C88.2097 37.7357 88.3093 37.6533 88.3613 37.532C88.4133 37.4107 88.4393 37.2157 88.4393 36.947V31.396L83.1093 38.13C83.0833 38.1647 83.0227 38.182 82.9273 38.182C82.7713 38.182 82.6933 38.1517 82.6933 38.091V30.928C82.6933 30.668 82.6673 30.4773 82.6153 30.356C82.5633 30.2347 82.4637 30.1523 82.3163 30.109C82.1777 30.057 81.9523 30.031 81.6403 30.031C81.6143 30.031 81.6013 30.005 81.6013 29.953C81.6013 29.901 81.6143 29.875 81.6403 29.875L82.3423 29.888C82.7583 29.9053 83.0833 29.914 83.3173 29.914C83.6293 29.914 83.9933 29.9053 84.4093 29.888L85.0333 29.875C85.0593 29.875 85.0723 29.901 85.0723 29.953C85.0723 30.005 85.0593 30.031 85.0333 30.031C84.704 30.031 84.4657 30.057 84.3183 30.109C84.171 30.1523 84.0713 30.2347 84.0193 30.356C83.9673 30.4773 83.9413 30.668 83.9413 30.928V36.531L89.2713 29.797C89.2973 29.771 89.358 29.758 89.4533 29.758C89.514 29.758 89.566 29.7667 89.6093 29.784C89.6613 29.8013 89.6873 29.823 89.6873 29.849V36.947C89.6873 37.207 89.7133 37.402 89.7653 37.532C89.8173 37.6533 89.9127 37.7357 90.0513 37.779C90.1987 37.8223 90.4283 37.844 90.7403 37.844ZM97.2615 29.732C97.6515 29.732 98.0545 29.7667 98.4705 29.836C98.8951 29.9053 99.2288 30.0007 99.4715 30.122C99.5495 30.148 99.5971 30.1827 99.6145 30.226C99.6405 30.2607 99.6578 30.3257 99.6665 30.421L99.8225 32.111C99.8225 32.137 99.8008 32.1543 99.7575 32.163C99.7141 32.1717 99.6881 32.1587 99.6795 32.124C99.4281 31.448 99.0468 30.9323 98.5355 30.577C98.0328 30.2217 97.4391 30.044 96.7545 30.044C95.8531 30.044 95.1468 30.3603 94.6355 30.993C94.1241 31.6257 93.8685 32.475 93.8685 33.541C93.8685 34.3383 94.0071 35.0707 94.2845 35.738C94.5705 36.4053 94.9605 36.934 95.4545 37.324C95.9571 37.714 96.5161 37.909 97.1315 37.909C98.3015 37.909 99.1898 37.181 99.7965 35.725C99.8051 35.6903 99.8311 35.6773 99.8745 35.686C99.9265 35.6947 99.9525 35.712 99.9525 35.738L99.7575 37.402C99.7401 37.506 99.7185 37.5753 99.6925 37.61C99.6751 37.636 99.6275 37.6663 99.5495 37.701C98.7955 38.0043 97.9938 38.156 97.1445 38.156C96.0871 38.156 95.2075 37.948 94.5055 37.532C93.8035 37.1073 93.2835 36.57 92.9455 35.92C92.6161 35.27 92.4515 34.594 92.4515 33.892C92.4515 33.0773 92.6725 32.3537 93.1145 31.721C93.5651 31.0883 94.1588 30.5987 94.8955 30.252C95.6321 29.9053 96.4208 29.732 97.2615 29.732ZM110.404 37.844C110.447 37.844 110.469 37.87 110.469 37.922C110.469 37.974 110.447 38 110.404 38C110.239 38 109.975 37.9913 109.611 37.974C109.247 37.9567 108.982 37.948 108.818 37.948C108.601 37.948 108.345 37.9567 108.051 37.974C107.756 37.9913 107.526 38 107.362 38C107.327 38 107.31 37.974 107.31 37.922C107.31 37.87 107.327 37.844 107.362 37.844C107.613 37.844 107.795 37.818 107.908 37.766C108.029 37.7053 108.09 37.61 108.09 37.48C108.09 37.35 108.016 37.129 107.869 36.817L106.465 33.97H104.112L103.111 36.219C102.998 36.479 102.942 36.713 102.942 36.921C102.942 37.2243 103.05 37.454 103.267 37.61C103.483 37.766 103.787 37.844 104.177 37.844C104.22 37.844 104.242 37.87 104.242 37.922C104.242 37.974 104.22 38 104.177 38C104.021 38 103.795 37.9913 103.501 37.974C103.171 37.9567 102.885 37.948 102.643 37.948C102.409 37.948 102.136 37.9567 101.824 37.974C101.546 37.9913 101.317 38 101.135 38C101.091 38 101.07 37.974 101.07 37.922C101.07 37.87 101.091 37.844 101.135 37.844C101.377 37.844 101.581 37.7963 101.746 37.701C101.91 37.6057 102.071 37.4367 102.227 37.194C102.383 36.9427 102.569 36.5743 102.786 36.089L105.581 29.797C105.598 29.771 105.637 29.758 105.698 29.758C105.758 29.758 105.793 29.771 105.802 29.797L108.987 36.219C109.29 36.843 109.541 37.272 109.741 37.506C109.949 37.7313 110.17 37.844 110.404 37.844ZM104.255 33.645H106.309L105.23 31.461L104.255 33.645ZM112.882 30.148C112.353 30.148 111.916 30.3127 111.569 30.642C111.231 30.9627 110.971 31.4523 110.789 32.111C110.789 32.1283 110.763 32.137 110.711 32.137C110.668 32.137 110.646 32.124 110.646 32.098C110.681 31.76 110.72 31.3267 110.763 30.798C110.806 30.2607 110.828 29.8577 110.828 29.589C110.828 29.5457 110.85 29.524 110.893 29.524C110.945 29.524 110.971 29.5457 110.971 29.589C110.971 29.7797 111.214 29.875 111.699 29.875C112.444 29.901 113.315 29.914 114.312 29.914C114.823 29.914 115.365 29.9053 115.937 29.888L116.821 29.875C117.15 29.875 117.389 29.8533 117.536 29.81C117.692 29.7667 117.792 29.68 117.835 29.55C117.844 29.5153 117.87 29.498 117.913 29.498C117.956 29.498 117.978 29.5153 117.978 29.55C117.952 29.8187 117.926 30.226 117.9 30.772C117.874 31.318 117.861 31.76 117.861 32.098C117.861 32.124 117.835 32.137 117.783 32.137C117.74 32.137 117.714 32.124 117.705 32.098C117.618 31.4307 117.415 30.941 117.094 30.629C116.773 30.3083 116.34 30.148 115.794 30.148C115.551 30.148 115.369 30.1697 115.248 30.213C115.135 30.2563 115.057 30.3343 115.014 30.447C114.979 30.551 114.962 30.72 114.962 30.954V36.947C114.962 37.2157 114.988 37.4107 115.04 37.532C115.092 37.6533 115.196 37.7357 115.352 37.779C115.508 37.8223 115.755 37.844 116.093 37.844C116.119 37.844 116.132 37.87 116.132 37.922C116.132 37.974 116.119 38 116.093 38C115.79 38 115.551 37.9957 115.378 37.987L114.312 37.974L113.298 37.987C113.116 37.9957 112.865 38 112.544 38C112.527 38 112.518 37.974 112.518 37.922C112.518 37.87 112.527 37.844 112.544 37.844C112.882 37.844 113.129 37.8223 113.285 37.779C113.45 37.7357 113.558 37.6533 113.61 37.532C113.671 37.402 113.701 37.207 113.701 36.947V30.928C113.701 30.7027 113.679 30.538 113.636 30.434C113.593 30.33 113.515 30.2563 113.402 30.213C113.289 30.1697 113.116 30.148 112.882 30.148ZM123.251 33.411C124.135 33.411 124.816 33.5887 125.292 33.944C125.769 34.2907 126.007 34.8237 126.007 35.543C126.007 36.0457 125.886 36.4877 125.643 36.869C125.409 37.2417 125.076 37.532 124.642 37.74C124.218 37.948 123.728 38.052 123.173 38.052C122.957 38.052 122.692 38.039 122.38 38.013C121.652 37.987 121.262 37.974 121.21 37.974L120.378 37.987C120.205 37.9957 119.962 38 119.65 38C119.624 38 119.611 37.974 119.611 37.922C119.611 37.87 119.624 37.844 119.65 37.844C119.954 37.8353 120.17 37.8137 120.3 37.779C120.43 37.7357 120.521 37.6577 120.573 37.545C120.625 37.4237 120.651 37.2243 120.651 36.947V30.928C120.651 30.6507 120.625 30.4557 120.573 30.343C120.53 30.2217 120.443 30.1437 120.313 30.109C120.183 30.0743 119.967 30.0483 119.663 30.031C119.646 30.031 119.637 30.005 119.637 29.953C119.637 29.901 119.646 29.875 119.663 29.875L120.3 29.888C120.682 29.9053 121.002 29.914 121.262 29.914C121.531 29.914 121.873 29.9053 122.289 29.888L122.991 29.875C123.017 29.875 123.03 29.901 123.03 29.953C123.03 30.005 123.017 30.031 122.991 30.031C122.662 30.0483 122.424 30.0787 122.276 30.122C122.138 30.1567 122.038 30.2347 121.977 30.356C121.925 30.4773 121.899 30.6767 121.899 30.954V33.528C122.35 33.45 122.801 33.411 123.251 33.411ZM122.939 37.753C123.572 37.753 124.023 37.597 124.291 37.285C124.56 36.9643 124.694 36.466 124.694 35.79C124.694 35.0707 124.547 34.5507 124.252 34.23C123.958 33.9007 123.49 33.736 122.848 33.736C122.614 33.736 122.298 33.7663 121.899 33.827V36.947C121.899 37.2243 121.964 37.428 122.094 37.558C122.233 37.688 122.515 37.753 122.939 37.753ZM135.39 33.437C136.101 33.515 136.668 33.7533 137.093 34.152C137.518 34.5507 137.73 35.0447 137.73 35.634C137.73 36.0847 137.604 36.4963 137.353 36.869C137.11 37.233 136.768 37.5233 136.326 37.74C135.893 37.948 135.407 38.052 134.87 38.052C134.619 38.052 134.328 38.039 133.999 38.013C133.886 38.0043 133.743 37.9957 133.57 37.987C133.397 37.9783 133.202 37.974 132.985 37.974L132.049 37.987C131.884 37.9957 131.659 38 131.373 38C131.347 38 131.334 37.974 131.334 37.922C131.334 37.87 131.347 37.844 131.373 37.844C131.65 37.844 131.858 37.8223 131.997 37.779C132.136 37.727 132.231 37.6403 132.283 37.519C132.344 37.3977 132.374 37.207 132.374 36.947V30.928C132.374 30.6767 132.344 30.4903 132.283 30.369C132.231 30.239 132.136 30.1523 131.997 30.109C131.867 30.057 131.663 30.031 131.386 30.031C131.369 30.031 131.36 30.005 131.36 29.953C131.36 29.901 131.369 29.875 131.386 29.875L132.062 29.888C132.443 29.9053 132.751 29.914 132.985 29.914C133.228 29.914 133.483 29.901 133.752 29.875C133.847 29.8663 133.96 29.8577 134.09 29.849C134.229 29.8403 134.385 29.836 134.558 29.836C135.329 29.836 135.919 29.9877 136.326 30.291C136.742 30.5857 136.95 30.9973 136.95 31.526C136.95 31.9333 136.811 32.306 136.534 32.644C136.265 32.982 135.884 33.2463 135.39 33.437ZM134.337 30.096C134.06 30.096 133.869 30.1523 133.765 30.265C133.67 30.3777 133.622 30.6073 133.622 30.954V33.424L134.168 33.437C134.679 33.437 135.065 33.2723 135.325 32.943C135.585 32.605 135.715 32.1717 135.715 31.643C135.715 31.149 135.598 30.7677 135.364 30.499C135.13 30.2303 134.788 30.096 134.337 30.096ZM134.662 37.753C135.832 37.753 136.417 37.1507 136.417 35.946C136.417 35.2873 136.244 34.7587 135.897 34.36C135.559 33.9613 135.061 33.762 134.402 33.762C134.09 33.762 133.83 33.7707 133.622 33.788V36.947C133.622 37.1463 133.648 37.3023 133.7 37.415C133.752 37.5277 133.852 37.6143 133.999 37.675C134.146 37.727 134.367 37.753 134.662 37.753ZM145.496 30.148C144.967 30.148 144.53 30.3127 144.183 30.642C143.845 30.9627 143.585 31.4523 143.403 32.111C143.403 32.1283 143.377 32.137 143.325 32.137C143.282 32.137 143.26 32.124 143.26 32.098C143.295 31.76 143.334 31.3267 143.377 30.798C143.42 30.2607 143.442 29.8577 143.442 29.589C143.442 29.5457 143.464 29.524 143.507 29.524C143.559 29.524 143.585 29.5457 143.585 29.589C143.585 29.7797 143.828 29.875 144.313 29.875C145.058 29.901 145.929 29.914 146.926 29.914C147.437 29.914 147.979 29.9053 148.551 29.888L149.435 29.875C149.764 29.875 150.003 29.8533 150.15 29.81C150.306 29.7667 150.406 29.68 150.449 29.55C150.458 29.5153 150.484 29.498 150.527 29.498C150.57 29.498 150.592 29.5153 150.592 29.55C150.566 29.8187 150.54 30.226 150.514 30.772C150.488 31.318 150.475 31.76 150.475 32.098C150.475 32.124 150.449 32.137 150.397 32.137C150.354 32.137 150.328 32.124 150.319 32.098C150.232 31.4307 150.029 30.941 149.708 30.629C149.387 30.3083 148.954 30.148 148.408 30.148C148.165 30.148 147.983 30.1697 147.862 30.213C147.749 30.2563 147.671 30.3343 147.628 30.447C147.593 30.551 147.576 30.72 147.576 30.954V36.947C147.576 37.2157 147.602 37.4107 147.654 37.532C147.706 37.6533 147.81 37.7357 147.966 37.779C148.122 37.8223 148.369 37.844 148.707 37.844C148.733 37.844 148.746 37.87 148.746 37.922C148.746 37.974 148.733 38 148.707 38C148.404 38 148.165 37.9957 147.992 37.987L146.926 37.974L145.912 37.987C145.73 37.9957 145.479 38 145.158 38C145.141 38 145.132 37.974 145.132 37.922C145.132 37.87 145.141 37.844 145.158 37.844C145.496 37.844 145.743 37.8223 145.899 37.779C146.064 37.7357 146.172 37.6533 146.224 37.532C146.285 37.402 146.315 37.207 146.315 36.947V30.928C146.315 30.7027 146.293 30.538 146.25 30.434C146.207 30.33 146.129 30.2563 146.016 30.213C145.903 30.1697 145.73 30.148 145.496 30.148ZM158.076 35.972C158.076 35.9547 158.093 35.946 158.128 35.946C158.154 35.946 158.175 35.9547 158.193 35.972C158.219 35.9807 158.232 35.9893 158.232 35.998C158.145 36.6567 158.102 37.259 158.102 37.805C158.102 37.8743 158.089 37.9263 158.063 37.961C158.037 37.987 157.985 38 157.907 38H152.265C152.239 38 152.226 37.974 152.226 37.922C152.226 37.87 152.239 37.844 152.265 37.844C152.559 37.844 152.772 37.8223 152.902 37.779C153.04 37.7357 153.131 37.6533 153.175 37.532C153.227 37.402 153.253 37.207 153.253 36.947V30.928C153.253 30.668 153.227 30.4773 153.175 30.356C153.131 30.2347 153.04 30.1523 152.902 30.109C152.763 30.057 152.551 30.031 152.265 30.031C152.239 30.031 152.226 30.005 152.226 29.953C152.226 29.901 152.239 29.875 152.265 29.875H157.673C157.759 29.875 157.803 29.914 157.803 29.992L157.829 31.682C157.829 31.6993 157.803 31.7123 157.751 31.721C157.707 31.7297 157.681 31.721 157.673 31.695C157.465 30.707 156.862 30.213 155.866 30.213H155.346C155.034 30.213 154.813 30.2693 154.683 30.382C154.553 30.4947 154.488 30.6853 154.488 30.954V33.606H155.736C156.689 33.606 157.166 33.2853 157.166 32.644C157.166 32.618 157.187 32.605 157.231 32.605C157.283 32.605 157.309 32.618 157.309 32.644L157.296 33.775L157.309 34.386C157.326 34.6633 157.335 34.8887 157.335 35.062C157.335 35.0793 157.309 35.088 157.257 35.088C157.205 35.088 157.179 35.0793 157.179 35.062C157.179 34.3167 156.693 33.944 155.723 33.944H154.488V36.895C154.488 37.181 154.54 37.3803 154.644 37.493C154.756 37.6057 154.951 37.662 155.229 37.662H155.866C157.027 37.662 157.764 37.0987 158.076 35.972ZM168.721 37.844C168.764 37.844 168.786 37.87 168.786 37.922C168.786 37.974 168.764 38 168.721 38C168.556 38 168.292 37.9913 167.928 37.974C167.564 37.9567 167.3 37.948 167.135 37.948C166.918 37.948 166.663 37.9567 166.368 37.974C166.073 37.9913 165.844 38 165.679 38C165.644 38 165.627 37.974 165.627 37.922C165.627 37.87 165.644 37.844 165.679 37.844C165.93 37.844 166.112 37.818 166.225 37.766C166.346 37.7053 166.407 37.61 166.407 37.48C166.407 37.35 166.333 37.129 166.186 36.817L163.547 31.461L161.428 36.219C161.315 36.479 161.259 36.713 161.259 36.921C161.259 37.2243 161.367 37.454 161.584 37.61C161.801 37.766 162.104 37.844 162.494 37.844C162.537 37.844 162.559 37.87 162.559 37.922C162.559 37.974 162.537 38 162.494 38C162.338 38 162.113 37.9913 161.818 37.974C161.489 37.9567 161.203 37.948 160.96 37.948C160.726 37.948 160.453 37.9567 160.141 37.974C159.864 37.9913 159.634 38 159.452 38C159.409 38 159.387 37.974 159.387 37.922C159.387 37.87 159.409 37.844 159.452 37.844C159.695 37.844 159.898 37.7963 160.063 37.701C160.228 37.6057 160.388 37.4367 160.544 37.194C160.7 36.9427 160.886 36.5743 161.103 36.089L163.898 29.797C163.915 29.771 163.954 29.758 164.015 29.758C164.076 29.758 164.11 29.771 164.119 29.797L167.304 36.219C167.607 36.843 167.859 37.272 168.058 37.506C168.266 37.7313 168.487 37.844 168.721 37.844ZM175.727 35.972C175.727 35.9547 175.744 35.946 175.779 35.946C175.805 35.946 175.827 35.9547 175.844 35.972C175.87 35.9807 175.883 35.9893 175.883 35.998C175.796 36.6567 175.753 37.259 175.753 37.805C175.753 37.8743 175.74 37.9263 175.714 37.961C175.688 37.987 175.636 38 175.558 38H169.916C169.89 38 169.877 37.974 169.877 37.922C169.877 37.87 169.89 37.844 169.916 37.844C170.211 37.844 170.423 37.8223 170.553 37.779C170.692 37.7357 170.783 37.6533 170.826 37.532C170.878 37.402 170.904 37.207 170.904 36.947V30.928C170.904 30.668 170.878 30.4773 170.826 30.356C170.783 30.2347 170.692 30.1523 170.553 30.109C170.414 30.057 170.202 30.031 169.916 30.031C169.89 30.031 169.877 30.005 169.877 29.953C169.877 29.901 169.89 29.875 169.916 29.875H175.324C175.411 29.875 175.454 29.914 175.454 29.992L175.48 31.682C175.48 31.6993 175.454 31.7123 175.402 31.721C175.359 31.7297 175.333 31.721 175.324 31.695C175.116 30.707 174.514 30.213 173.517 30.213H172.997C172.685 30.213 172.464 30.2693 172.334 30.382C172.204 30.4947 172.139 30.6853 172.139 30.954V33.606H173.387C174.34 33.606 174.817 33.2853 174.817 32.644C174.817 32.618 174.839 32.605 174.882 32.605C174.934 32.605 174.96 32.618 174.96 32.644L174.947 33.775L174.96 34.386C174.977 34.6633 174.986 34.8887 174.986 35.062C174.986 35.0793 174.96 35.088 174.908 35.088C174.856 35.088 174.83 35.0793 174.83 35.062C174.83 34.3167 174.345 33.944 173.374 33.944H172.139V36.895C172.139 37.181 172.191 37.3803 172.295 37.493C172.408 37.6057 172.603 37.662 172.88 37.662H173.517C174.678 37.662 175.415 37.0987 175.727 35.972ZM177.61 38C177.584 38 177.571 37.974 177.571 37.922C177.571 37.87 177.584 37.844 177.61 37.844C177.922 37.844 178.148 37.8223 178.286 37.779C178.434 37.7357 178.533 37.6533 178.585 37.532C178.637 37.402 178.663 37.207 178.663 36.947V30.928C178.663 30.668 178.637 30.4773 178.585 30.356C178.542 30.2347 178.451 30.1523 178.312 30.109C178.174 30.057 177.961 30.031 177.675 30.031C177.649 30.031 177.636 30.005 177.636 29.953C177.636 29.901 177.649 29.875 177.675 29.875H183.278C183.365 29.875 183.408 29.914 183.408 29.992L183.434 32.007C183.434 32.033 183.408 32.0503 183.356 32.059C183.313 32.059 183.287 32.046 183.278 32.02C183.062 30.8153 182.42 30.213 181.354 30.213H180.756C180.444 30.213 180.223 30.2693 180.093 30.382C179.963 30.4947 179.898 30.681 179.898 30.941V36.895C179.898 37.1723 179.933 37.376 180.002 37.506C180.072 37.6273 180.206 37.714 180.405 37.766C180.613 37.818 180.93 37.844 181.354 37.844C181.372 37.844 181.38 37.87 181.38 37.922C181.38 37.974 181.372 38 181.354 38C180.999 38 180.722 37.9957 180.522 37.987L179.248 37.974L178.299 37.987C178.135 37.9957 177.905 38 177.61 38ZM187.275 36.895C187.275 37.1723 187.306 37.376 187.366 37.506C187.436 37.6273 187.561 37.714 187.743 37.766C187.934 37.818 188.229 37.844 188.627 37.844C188.653 37.844 188.666 37.87 188.666 37.922C188.666 37.974 188.653 38 188.627 38C188.272 38 187.995 37.9957 187.795 37.987L186.664 37.974L185.728 37.987C185.564 37.9957 185.338 38 185.052 38C185.026 38 185.013 37.974 185.013 37.922C185.013 37.87 185.026 37.844 185.052 37.844C185.347 37.844 185.559 37.8223 185.689 37.779C185.819 37.7357 185.906 37.6533 185.949 37.532C186.001 37.4107 186.027 37.2157 186.027 36.947V30.928C186.027 30.668 186.001 30.4773 185.949 30.356C185.906 30.2347 185.815 30.1523 185.676 30.109C185.546 30.057 185.338 30.031 185.052 30.031C185.026 30.031 185.013 30.005 185.013 29.953C185.013 29.901 185.026 29.875 185.052 29.875L185.728 29.888C186.11 29.9053 186.417 29.914 186.651 29.914C186.851 29.914 187.093 29.901 187.379 29.875C187.483 29.8663 187.622 29.8577 187.795 29.849C187.977 29.8403 188.19 29.836 188.432 29.836C189.29 29.836 189.966 30.018 190.46 30.382C190.963 30.746 191.214 31.305 191.214 32.059C191.214 32.605 191.071 33.0687 190.785 33.45C190.508 33.8313 190.148 34.1173 189.706 34.308C189.273 34.4987 188.827 34.594 188.367 34.594C188.125 34.594 187.921 34.5723 187.756 34.529C187.73 34.529 187.717 34.5073 187.717 34.464C187.717 34.438 187.722 34.412 187.73 34.386C187.748 34.36 187.765 34.3513 187.782 34.36C187.921 34.3947 188.073 34.412 188.237 34.412C188.688 34.412 189.069 34.2257 189.381 33.853C189.693 33.4803 189.849 32.9473 189.849 32.254C189.849 31.5693 189.689 31.0407 189.368 30.668C189.048 30.2867 188.606 30.096 188.042 30.096C187.834 30.096 187.674 30.1177 187.561 30.161C187.457 30.2043 187.384 30.2867 187.34 30.408C187.297 30.5207 187.275 30.7027 187.275 30.954V36.895ZM200.914 37.844C200.957 37.844 200.979 37.87 200.979 37.922C200.979 37.974 200.957 38 200.914 38C200.749 38 200.485 37.9913 200.121 37.974C199.757 37.9567 199.492 37.948 199.328 37.948C199.111 37.948 198.855 37.9567 198.561 37.974C198.266 37.9913 198.036 38 197.872 38C197.837 38 197.82 37.974 197.82 37.922C197.82 37.87 197.837 37.844 197.872 37.844C198.123 37.844 198.305 37.818 198.418 37.766C198.539 37.7053 198.6 37.61 198.6 37.48C198.6 37.35 198.526 37.129 198.379 36.817L196.975 33.97H194.622L193.621 36.219C193.508 36.479 193.452 36.713 193.452 36.921C193.452 37.2243 193.56 37.454 193.777 37.61C193.993 37.766 194.297 37.844 194.687 37.844C194.73 37.844 194.752 37.87 194.752 37.922C194.752 37.974 194.73 38 194.687 38C194.531 38 194.305 37.9913 194.011 37.974C193.681 37.9567 193.395 37.948 193.153 37.948C192.919 37.948 192.646 37.9567 192.334 37.974C192.056 37.9913 191.827 38 191.645 38C191.601 38 191.58 37.974 191.58 37.922C191.58 37.87 191.601 37.844 191.645 37.844C191.887 37.844 192.091 37.7963 192.256 37.701C192.42 37.6057 192.581 37.4367 192.737 37.194C192.893 36.9427 193.079 36.5743 193.296 36.089L196.091 29.797C196.108 29.771 196.147 29.758 196.208 29.758C196.268 29.758 196.303 29.771 196.312 29.797L199.497 36.219C199.8 36.843 200.051 37.272 200.251 37.506C200.459 37.7313 200.68 37.844 200.914 37.844ZM194.765 33.645H196.819L195.74 31.461L194.765 33.645ZM212.301 37.844C212.318 37.844 212.327 37.87 212.327 37.922C212.327 37.974 212.318 38 212.301 38C212.015 38 211.785 37.9957 211.612 37.987L210.676 37.974L209.766 37.987C209.61 37.9957 209.389 38 209.103 38C209.086 38 209.077 37.974 209.077 37.922C209.077 37.87 209.086 37.844 209.103 37.844C209.484 37.844 209.74 37.8007 209.87 37.714C210 37.6273 210.065 37.4453 210.065 37.168L210.052 36.947L209.792 31.435L207.023 37.909C207.006 37.9437 206.971 37.961 206.919 37.961C206.876 37.961 206.837 37.9437 206.802 37.909L203.552 31.487L203.435 36.427C203.426 36.8863 203.513 37.2373 203.695 37.48C203.886 37.7227 204.167 37.844 204.54 37.844C204.566 37.844 204.579 37.87 204.579 37.922C204.579 37.974 204.566 38 204.54 38C204.306 38 204.124 37.9957 203.994 37.987L203.279 37.974L202.512 37.987C202.382 37.9957 202.2 38 201.966 38C201.94 38 201.927 37.974 201.927 37.922C201.927 37.87 201.94 37.844 201.966 37.844C202.321 37.844 202.594 37.7227 202.785 37.48C202.984 37.2373 203.088 36.8863 203.097 36.427L203.214 30.837C203.058 30.5597 202.885 30.356 202.694 30.226C202.512 30.096 202.3 30.031 202.057 30.031C202.031 30.031 202.018 30.005 202.018 29.953C202.018 29.901 202.031 29.875 202.057 29.875L202.616 29.888C202.729 29.8967 202.876 29.901 203.058 29.901L203.669 29.888C203.738 29.8793 203.825 29.875 203.929 29.875C204.042 29.875 204.133 29.9183 204.202 30.005C204.271 30.083 204.38 30.265 204.527 30.551L207.387 36.128L209.974 30.2C210.026 30.0787 210.082 29.9963 210.143 29.953C210.204 29.901 210.277 29.875 210.364 29.875C210.425 29.875 210.503 29.8793 210.598 29.888C210.693 29.8967 210.81 29.901 210.949 29.901L211.651 29.888C211.764 29.8793 211.933 29.875 212.158 29.875C212.175 29.875 212.184 29.901 212.184 29.953C212.184 30.005 212.175 30.031 212.158 30.031C211.742 30.031 211.439 30.109 211.248 30.265C211.066 30.4123 210.984 30.6593 211.001 31.006L211.3 36.947C211.317 37.2157 211.348 37.4107 211.391 37.532C211.443 37.6533 211.534 37.7357 211.664 37.779C211.794 37.8223 212.006 37.844 212.301 37.844Z" fill="#2E2E2E"></path> </svg> 